<?xml version="1.0" encoding="utf-8"?>
<svg xmlns="http://www.w3.org/2000/svg" xmlns:xlink="http://www.w3.org/1999/xlink" width="600" height="400" viewBox="0 0 2400 1600">
<defs>
  <clipPath id="clip630">
    <rect x="0" y="0" width="2400" height="1600"/>
  </clipPath>
</defs>
<path clip-path="url(#clip630)" d="
M0 1600 L2400 1600 L2400 0 L0 0  Z
  " fill="#ffffff" fill-rule="evenodd" fill-opacity="1"/>
<defs>
  <clipPath id="clip631">
    <rect x="480" y="0" width="1681" height="1600"/>
  </clipPath>
</defs>
<path clip-path="url(#clip630)" d="
M201.597 1486.45 L2352.76 1486.45 L2352.76 47.2441 L201.597 47.2441  Z
  " fill="#ffffff" fill-rule="evenodd" fill-opacity="1"/>
<defs>
  <clipPath id="clip632">
    <rect x="201" y="47" width="2152" height="1440"/>
  </clipPath>
</defs>
<polyline clip-path="url(#clip632)" style="stroke:#000000; stroke-width:2; stroke-opacity:0.1; fill:none" points="
  465.418,1486.45 465.418,47.2441 
  "/>
<polyline clip-path="url(#clip632)" style="stroke:#000000; stroke-width:2; stroke-opacity:0.1; fill:none" points="
  871.297,1486.45 871.297,47.2441 
  "/>
<polyline clip-path="url(#clip632)" style="stroke:#000000; stroke-width:2; stroke-opacity:0.1; fill:none" points="
  1277.18,1486.45 1277.18,47.2441 
  "/>
<polyline clip-path="url(#clip632)" style="stroke:#000000; stroke-width:2; stroke-opacity:0.1; fill:none" points="
  1683.06,1486.45 1683.06,47.2441 
  "/>
<polyline clip-path="url(#clip632)" style="stroke:#000000; stroke-width:2; stroke-opacity:0.1; fill:none" points="
  2088.93,1486.45 2088.93,47.2441 
  "/>
<polyline clip-path="url(#clip630)" style="stroke:#000000; stroke-width:4; stroke-opacity:1; fill:none" points="
  201.597,1486.45 2352.76,1486.45 
  "/>
<polyline clip-path="url(#clip630)" style="stroke:#000000; stroke-width:4; stroke-opacity:1; fill:none" points="
  465.418,1486.45 465.418,1469.18 
  "/>
<polyline clip-path="url(#clip630)" style="stroke:#000000; stroke-width:4; stroke-opacity:1; fill:none" points="
  871.297,1486.45 871.297,1469.18 
  "/>
<polyline clip-path="url(#clip630)" style="stroke:#000000; stroke-width:4; stroke-opacity:1; fill:none" points="
  1277.18,1486.45 1277.18,1469.18 
  "/>
<polyline clip-path="url(#clip630)" style="stroke:#000000; stroke-width:4; stroke-opacity:1; fill:none" points="
  1683.06,1486.45 1683.06,1469.18 
  "/>
<polyline clip-path="url(#clip630)" style="stroke:#000000; stroke-width:4; stroke-opacity:1; fill:none" points="
  2088.93,1486.45 2088.93,1469.18 
  "/>
<path clip-path="url(#clip630)" d="M 0 0 M460.071 1543.18 L476.39 1543.18 L476.39 1547.12 L454.446 1547.12 L454.446 1543.18 Q457.108 1540.43 461.691 1535.8 Q466.298 1531.15 467.478 1529.81 Q469.724 1527.28 470.603 1525.55 Q471.506 1523.79 471.506 1522.1 Q471.506 1519.34 469.561 1517.61 Q467.64 1515.87 464.538 1515.87 Q462.339 1515.87 459.886 1516.63 Q457.455 1517.4 454.677 1518.95 L454.677 1514.23 Q457.501 1513.09 459.955 1512.51 Q462.409 1511.93 464.446 1511.93 Q469.816 1511.93 473.011 1514.62 Q476.205 1517.31 476.205 1521.8 Q476.205 1523.93 475.395 1525.85 Q474.608 1527.74 472.501 1530.34 Q471.923 1531.01 468.821 1534.23 Q465.719 1537.42 460.071 1543.18 Z" fill="#000000" fill-rule="evenodd" fill-opacity="1" /><path clip-path="url(#clip630)" d="M 0 0 M874.306 1516.63 L862.501 1535.08 L874.306 1535.08 L874.306 1516.63 M873.079 1512.56 L878.959 1512.56 L878.959 1535.08 L883.89 1535.08 L883.89 1538.97 L878.959 1538.97 L878.959 1547.12 L874.306 1547.12 L874.306 1538.97 L858.705 1538.97 L858.705 1534.46 L873.079 1512.56 Z" fill="#000000" fill-rule="evenodd" fill-opacity="1" /><path clip-path="url(#clip630)" d="M 0 0 M1277.58 1527.98 Q1274.43 1527.98 1272.58 1530.13 Q1270.75 1532.28 1270.75 1536.03 Q1270.75 1539.76 1272.58 1541.93 Q1274.43 1544.09 1277.58 1544.09 Q1280.73 1544.09 1282.56 1541.93 Q1284.41 1539.76 1284.41 1536.03 Q1284.41 1532.28 1282.56 1530.13 Q1280.73 1527.98 1277.58 1527.98 M1286.86 1513.32 L1286.86 1517.58 Q1285.1 1516.75 1283.3 1516.31 Q1281.52 1515.87 1279.76 1515.87 Q1275.13 1515.87 1272.67 1519 Q1270.24 1522.12 1269.9 1528.44 Q1271.26 1526.43 1273.32 1525.36 Q1275.38 1524.27 1277.86 1524.27 Q1283.07 1524.27 1286.08 1527.44 Q1289.11 1530.59 1289.11 1536.03 Q1289.11 1541.36 1285.96 1544.57 Q1282.81 1547.79 1277.58 1547.79 Q1271.59 1547.79 1268.41 1543.21 Q1265.24 1538.6 1265.24 1529.87 Q1265.24 1521.68 1269.13 1516.82 Q1273.02 1511.93 1279.57 1511.93 Q1281.33 1511.93 1283.11 1512.28 Q1284.92 1512.63 1286.86 1513.32 Z" fill="#000000" fill-rule="evenodd" fill-opacity="1" /><path clip-path="url(#clip630)" d="M 0 0 M1683.06 1530.71 Q1679.72 1530.71 1677.8 1532.49 Q1675.9 1534.27 1675.9 1537.4 Q1675.9 1540.52 1677.8 1542.31 Q1679.72 1544.09 1683.06 1544.09 Q1686.39 1544.09 1688.31 1542.31 Q1690.23 1540.5 1690.23 1537.4 Q1690.23 1534.27 1688.31 1532.49 Q1686.41 1530.71 1683.06 1530.71 M1678.38 1528.72 Q1675.37 1527.98 1673.68 1525.92 Q1672.01 1523.86 1672.01 1520.89 Q1672.01 1516.75 1674.95 1514.34 Q1677.92 1511.93 1683.06 1511.93 Q1688.22 1511.93 1691.16 1514.34 Q1694.1 1516.75 1694.1 1520.89 Q1694.1 1523.86 1692.41 1525.92 Q1690.74 1527.98 1687.75 1528.72 Q1691.13 1529.5 1693.01 1531.8 Q1694.91 1534.09 1694.91 1537.4 Q1694.91 1542.42 1691.83 1545.11 Q1688.77 1547.79 1683.06 1547.79 Q1677.34 1547.79 1674.26 1545.11 Q1671.2 1542.42 1671.2 1537.4 Q1671.2 1534.09 1673.1 1531.8 Q1675 1529.5 1678.38 1528.72 M1676.67 1521.33 Q1676.67 1524.02 1678.33 1525.52 Q1680.02 1527.03 1683.06 1527.03 Q1686.06 1527.03 1687.75 1525.52 Q1689.47 1524.02 1689.47 1521.33 Q1689.47 1518.65 1687.75 1517.14 Q1686.06 1515.64 1683.06 1515.64 Q1680.02 1515.64 1678.33 1517.14 Q1676.67 1518.65 1676.67 1521.33 Z" fill="#000000" fill-rule="evenodd" fill-opacity="1" /><path clip-path="url(#clip630)" d="M 0 0 M2065.81 1543.18 L2073.45 1543.18 L2073.45 1516.82 L2065.14 1518.49 L2065.14 1514.23 L2073.4 1512.56 L2078.08 1512.56 L2078.08 1543.18 L2085.72 1543.18 L2085.72 1547.12 L2065.81 1547.12 L2065.81 1543.18 Z" fill="#000000" fill-rule="evenodd" fill-opacity="1" /><path clip-path="url(#clip630)" d="M 0 0 M2100.79 1515.64 Q2097.18 1515.64 2095.35 1519.2 Q2093.54 1522.75 2093.54 1529.87 Q2093.54 1536.98 2095.35 1540.55 Q2097.18 1544.09 2100.79 1544.09 Q2104.42 1544.09 2106.23 1540.55 Q2108.05 1536.98 2108.05 1529.87 Q2108.05 1522.75 2106.23 1519.2 Q2104.42 1515.64 2100.79 1515.64 M2100.79 1511.93 Q2106.6 1511.93 2109.65 1516.54 Q2112.73 1521.12 2112.73 1529.87 Q2112.73 1538.6 2109.65 1543.21 Q2106.6 1547.79 2100.79 1547.79 Q2094.98 1547.79 2091.9 1543.21 Q2088.84 1538.6 2088.84 1529.87 Q2088.84 1521.12 2091.9 1516.54 Q2094.98 1511.93 2100.79 1511.93 Z" fill="#000000" fill-rule="evenodd" fill-opacity="1" /><polyline clip-path="url(#clip632)" style="stroke:#000000; stroke-width:2; stroke-opacity:0.1; fill:none" points="
  201.597,1389.08 2352.76,1389.08 
  "/>
<polyline clip-path="url(#clip632)" style="stroke:#000000; stroke-width:2; stroke-opacity:0.1; fill:none" points="
  201.597,946.863 2352.76,946.863 
  "/>
<polyline clip-path="url(#clip632)" style="stroke:#000000; stroke-width:2; stroke-opacity:0.1; fill:none" points="
  201.597,504.649 2352.76,504.649 
  "/>
<polyline clip-path="url(#clip632)" style="stroke:#000000; stroke-width:2; stroke-opacity:0.1; fill:none" points="
  201.597,62.4349 2352.76,62.4349 
  "/>
<polyline clip-path="url(#clip630)" style="stroke:#000000; stroke-width:4; stroke-opacity:1; fill:none" points="
  201.597,1486.45 201.597,47.2441 
  "/>
<polyline clip-path="url(#clip630)" style="stroke:#000000; stroke-width:4; stroke-opacity:1; fill:none" points="
  201.597,1389.08 227.41,1389.08 
  "/>
<polyline clip-path="url(#clip630)" style="stroke:#000000; stroke-width:4; stroke-opacity:1; fill:none" points="
  201.597,946.863 227.41,946.863 
  "/>
<polyline clip-path="url(#clip630)" style="stroke:#000000; stroke-width:4; stroke-opacity:1; fill:none" points="
  201.597,504.649 227.41,504.649 
  "/>
<polyline clip-path="url(#clip630)" style="stroke:#000000; stroke-width:4; stroke-opacity:1; fill:none" points="
  201.597,62.4349 227.41,62.4349 
  "/>
<path clip-path="url(#clip630)" d="M 0 0 M52.4722 1408.87 L60.111 1408.87 L60.111 1382.5 L51.8009 1384.17 L51.8009 1379.91 L60.0647 1378.24 L64.7406 1378.24 L64.7406 1408.87 L72.3795 1408.87 L72.3795 1412.8 L52.4722 1412.8 L52.4722 1408.87 Z" fill="#000000" fill-rule="evenodd" fill-opacity="1" /><path clip-path="url(#clip630)" d="M 0 0 M87.4488 1381.32 Q83.8377 1381.32 82.009 1384.89 Q80.2035 1388.43 80.2035 1395.56 Q80.2035 1402.67 82.009 1406.23 Q83.8377 1409.77 87.4488 1409.77 Q91.0831 1409.77 92.8886 1406.23 Q94.7173 1402.67 94.7173 1395.56 Q94.7173 1388.43 92.8886 1384.89 Q91.0831 1381.32 87.4488 1381.32 M87.4488 1377.62 Q93.259 1377.62 96.3145 1382.23 Q99.3932 1386.81 99.3932 1395.56 Q99.3932 1404.29 96.3145 1408.89 Q93.259 1413.48 87.4488 1413.48 Q81.6387 1413.48 78.56 1408.89 Q75.5044 1404.29 75.5044 1395.56 Q75.5044 1386.81 78.56 1382.23 Q81.6387 1377.62 87.4488 1377.62 Z" fill="#000000" fill-rule="evenodd" fill-opacity="1" /><path clip-path="url(#clip630)" d="M 0 0 M99.3932 1371.72 L123.505 1371.72 L123.505 1374.92 L99.3932 1374.92 L99.3932 1371.72 Z" fill="#000000" fill-rule="evenodd" fill-opacity="1" /><path clip-path="url(#clip630)" d="M 0 0 M128.282 1382.2 L134.488 1382.2 L134.488 1360.78 L127.737 1362.13 L127.737 1358.67 L134.451 1357.31 L138.25 1357.31 L138.25 1382.2 L144.457 1382.2 L144.457 1385.39 L128.282 1385.39 L128.282 1382.2 Z" fill="#000000" fill-rule="evenodd" fill-opacity="1" /><path clip-path="url(#clip630)" d="M 0 0 M148.613 1357.31 L163.528 1357.31 L163.528 1360.51 L152.093 1360.51 L152.093 1367.4 Q152.92 1367.11 153.748 1366.98 Q154.575 1366.83 155.403 1366.83 Q160.105 1366.83 162.851 1369.41 Q165.597 1371.98 165.597 1376.39 Q165.597 1380.92 162.775 1383.44 Q159.954 1385.94 154.82 1385.94 Q153.052 1385.94 151.209 1385.64 Q149.384 1385.34 147.428 1384.74 L147.428 1380.92 Q149.121 1381.84 150.926 1382.29 Q152.732 1382.74 154.744 1382.74 Q157.998 1382.74 159.898 1381.03 Q161.797 1379.32 161.797 1376.39 Q161.797 1373.45 159.898 1371.74 Q157.998 1370.03 154.744 1370.03 Q153.221 1370.03 151.698 1370.37 Q150.193 1370.71 148.613 1371.42 L148.613 1357.31 Z" fill="#000000" fill-rule="evenodd" fill-opacity="1" /><path clip-path="url(#clip630)" d="M 0 0 M51.6634 966.656 L59.3023 966.656 L59.3023 940.29 L50.9921 941.957 L50.9921 937.697 L59.256 936.031 L63.9319 936.031 L63.9319 966.656 L71.5707 966.656 L71.5707 970.591 L51.6634 970.591 L51.6634 966.656 Z" fill="#000000" fill-rule="evenodd" fill-opacity="1" /><path clip-path="url(#clip630)" d="M 0 0 M86.6401 939.109 Q83.029 939.109 81.2003 942.674 Q79.3948 946.216 79.3948 953.346 Q79.3948 960.452 81.2003 964.017 Q83.029 967.558 86.6401 967.558 Q90.2743 967.558 92.0799 964.017 Q93.9086 960.452 93.9086 953.346 Q93.9086 946.216 92.0799 942.674 Q90.2743 939.109 86.6401 939.109 M86.6401 935.406 Q92.4502 935.406 95.5058 940.012 Q98.5845 944.596 98.5845 953.346 Q98.5845 962.072 95.5058 966.679 Q92.4502 971.262 86.6401 971.262 Q80.8299 971.262 77.7512 966.679 Q74.6957 962.072 74.6957 953.346 Q74.6957 944.596 77.7512 940.012 Q80.8299 935.406 86.6401 935.406 Z" fill="#000000" fill-rule="evenodd" fill-opacity="1" /><path clip-path="url(#clip630)" d="M 0 0 M98.5845 929.507 L122.696 929.507 L122.696 932.704 L98.5845 932.704 L98.5845 929.507 Z" fill="#000000" fill-rule="evenodd" fill-opacity="1" /><path clip-path="url(#clip630)" d="M 0 0 M127.473 939.983 L133.68 939.983 L133.68 918.561 L126.928 919.915 L126.928 916.455 L133.642 915.1 L137.441 915.1 L137.441 939.983 L143.648 939.983 L143.648 943.18 L127.473 943.18 L127.473 939.983 Z" fill="#000000" fill-rule="evenodd" fill-opacity="1" /><path clip-path="url(#clip630)" d="M 0 0 M155.892 917.602 Q152.958 917.602 151.472 920.498 Q150.005 923.376 150.005 929.169 Q150.005 934.943 151.472 937.839 Q152.958 940.717 155.892 940.717 Q158.845 940.717 160.312 937.839 Q161.797 934.943 161.797 929.169 Q161.797 923.376 160.312 920.498 Q158.845 917.602 155.892 917.602 M155.892 914.593 Q160.612 914.593 163.095 918.335 Q165.597 922.059 165.597 929.169 Q165.597 936.259 163.095 940.002 Q160.612 943.726 155.892 943.726 Q151.171 943.726 148.67 940.002 Q146.187 936.259 146.187 929.169 Q146.187 922.059 148.67 918.335 Q151.171 914.593 155.892 914.593 Z" fill="#000000" fill-rule="evenodd" fill-opacity="1" /><path clip-path="url(#clip630)" d="M 0 0 M73.424 524.441 L81.0629 524.441 L81.0629 498.076 L72.7527 499.743 L72.7527 495.483 L81.0166 493.817 L85.6925 493.817 L85.6925 524.441 L93.3313 524.441 L93.3313 528.377 L73.424 528.377 L73.424 524.441 Z" fill="#000000" fill-rule="evenodd" fill-opacity="1" /><path clip-path="url(#clip630)" d="M 0 0 M108.401 496.895 Q104.79 496.895 102.961 500.46 Q101.155 504.002 101.155 511.131 Q101.155 518.238 102.961 521.803 Q104.79 525.344 108.401 525.344 Q112.035 525.344 113.84 521.803 Q115.669 518.238 115.669 511.131 Q115.669 504.002 113.84 500.46 Q112.035 496.895 108.401 496.895 M108.401 493.192 Q114.211 493.192 117.266 497.798 Q120.345 502.381 120.345 511.131 Q120.345 519.858 117.266 524.465 Q114.211 529.048 108.401 529.048 Q102.591 529.048 99.5118 524.465 Q96.4563 519.858 96.4563 511.131 Q96.4563 502.381 99.5118 497.798 Q102.591 493.192 108.401 493.192 Z" fill="#000000" fill-rule="evenodd" fill-opacity="1" /><path clip-path="url(#clip630)" d="M 0 0 M120.345 487.293 L144.457 487.293 L144.457 490.49 L120.345 490.49 L120.345 487.293 Z" fill="#000000" fill-rule="evenodd" fill-opacity="1" /><path clip-path="url(#clip630)" d="M 0 0 M148.613 472.886 L163.528 472.886 L163.528 476.084 L152.093 476.084 L152.093 482.967 Q152.92 482.685 153.748 482.553 Q154.575 482.403 155.403 482.403 Q160.105 482.403 162.851 484.98 Q165.597 487.556 165.597 491.957 Q165.597 496.49 162.775 499.01 Q159.954 501.512 154.82 501.512 Q153.052 501.512 151.209 501.211 Q149.384 500.91 147.428 500.308 L147.428 496.49 Q149.121 497.412 150.926 497.863 Q152.732 498.314 154.744 498.314 Q157.998 498.314 159.898 496.603 Q161.797 494.891 161.797 491.957 Q161.797 489.023 159.898 487.312 Q157.998 485.6 154.744 485.6 Q153.221 485.6 151.698 485.939 Q150.193 486.277 148.613 486.992 L148.613 472.886 Z" fill="#000000" fill-rule="evenodd" fill-opacity="1" /><path clip-path="url(#clip630)" d="M 0 0 M99.2659 82.2274 L106.905 82.2274 L106.905 55.8618 L98.5946 57.5284 L98.5946 53.2692 L106.858 51.6025 L111.534 51.6025 L111.534 82.2274 L119.173 82.2274 L119.173 86.1625 L99.2659 86.1625 L99.2659 82.2274 Z" fill="#000000" fill-rule="evenodd" fill-opacity="1" /><path clip-path="url(#clip630)" d="M 0 0 M134.243 54.6812 Q130.631 54.6812 128.803 58.246 Q126.997 61.7876 126.997 68.9172 Q126.997 76.0237 128.803 79.5885 Q130.631 83.1301 134.243 83.1301 Q137.877 83.1301 139.682 79.5885 Q141.511 76.0237 141.511 68.9172 Q141.511 61.7876 139.682 58.246 Q137.877 54.6812 134.243 54.6812 M134.243 50.9775 Q140.053 50.9775 143.108 55.584 Q146.187 60.1673 146.187 68.9172 Q146.187 77.644 143.108 82.2505 Q140.053 86.8338 134.243 86.8338 Q128.432 86.8338 125.354 82.2505 Q122.298 77.644 122.298 68.9172 Q122.298 60.1673 125.354 55.584 Q128.432 50.9775 134.243 50.9775 Z" fill="#000000" fill-rule="evenodd" fill-opacity="1" /><path clip-path="url(#clip630)" d="M 0 0 M155.892 33.1736 Q152.958 33.1736 151.472 36.0699 Q150.005 38.9475 150.005 44.7403 Q150.005 50.5143 151.472 53.4107 Q152.958 56.2883 155.892 56.2883 Q158.845 56.2883 160.312 53.4107 Q161.797 50.5143 161.797 44.7403 Q161.797 38.9475 160.312 36.0699 Q158.845 33.1736 155.892 33.1736 M155.892 30.1643 Q160.612 30.1643 163.095 33.9071 Q165.597 37.631 165.597 44.7403 Q165.597 51.8309 163.095 55.5736 Q160.612 59.2975 155.892 59.2975 Q151.171 59.2975 148.67 55.5736 Q146.187 51.8309 146.187 44.7403 Q146.187 37.631 148.67 33.9071 Q151.171 30.1643 155.892 30.1643 Z" fill="#000000" fill-rule="evenodd" fill-opacity="1" /><polyline clip-path="url(#clip632)" style="stroke:#009af9; stroke-width:4; stroke-opacity:1; fill:none" points="
  262.478,89.0968 465.418,176.888 668.358,405.571 871.297,1091.77 1074.24,1445.72 1277.18,1433.57 1480.12,1445.72 1683.06,1433.57 1885.99,1445.72 2088.93,1433.57 
  2291.87,1445.72 
  "/>
<polyline clip-path="url(#clip632)" style="stroke:#e26f46; stroke-width:4; stroke-opacity:1; fill:none" points="
  262.478,87.9763 465.418,165.524 668.358,344.556 871.297,732.135 1074.24,1419.09 1277.18,1428.81 1480.12,1425.78 1683.06,1428.81 1885.99,1425.78 2088.93,1428.81 
  2291.87,1425.78 
  "/>
<path clip-path="url(#clip630)" d="
M1440.39 276.658 L2281.05 276.658 L2281.05 95.2176 L1440.39 95.2176  Z
  " fill="#ffffff" fill-rule="evenodd" fill-opacity="1"/>
<polyline clip-path="url(#clip630)" style="stroke:#000000; stroke-width:4; stroke-opacity:1; fill:none" points="
  1440.39,276.658 2281.05,276.658 2281.05,95.2176 1440.39,95.2176 1440.39,276.658 
  "/>
<polyline clip-path="url(#clip630)" style="stroke:#009af9; stroke-width:4; stroke-opacity:1; fill:none" points="
  1464.29,155.698 1607.7,155.698 
  "/>
<path clip-path="url(#clip630)" d="M 0 0 M1648 156.774 Q1649.5 157.283 1650.91 158.95 Q1652.35 160.617 1653.78 163.533 L1658.53 172.978 L1653.5 172.978 L1649.08 164.112 Q1647.37 160.64 1645.75 159.505 Q1644.15 158.371 1641.38 158.371 L1636.28 158.371 L1636.28 172.978 L1631.61 172.978 L1631.61 138.418 L1642.16 138.418 Q1648.09 138.418 1651 140.894 Q1653.92 143.371 1653.92 148.371 Q1653.92 151.635 1652.39 153.788 Q1650.89 155.941 1648 156.774 M1636.28 142.26 L1636.28 154.529 L1642.16 154.529 Q1645.54 154.529 1647.25 152.978 Q1648.99 151.404 1648.99 148.371 Q1648.99 145.339 1647.25 143.811 Q1645.54 142.26 1642.16 142.26 L1636.28 142.26 Z" fill="#000000" fill-rule="evenodd" fill-opacity="1" /><path clip-path="url(#clip630)" d="M 0 0 M1677.21 141.589 Q1672.12 141.589 1669.11 145.385 Q1666.12 149.181 1666.12 155.732 Q1666.12 162.26 1669.11 166.056 Q1672.12 169.853 1677.21 169.853 Q1682.3 169.853 1685.26 166.056 Q1688.25 162.26 1688.25 155.732 Q1688.25 149.181 1685.26 145.385 Q1682.3 141.589 1677.21 141.589 M1683.76 172.353 L1689.92 179.089 L1684.27 179.089 L1679.15 173.556 Q1678.39 173.603 1677.97 173.626 Q1677.58 173.649 1677.21 173.649 Q1669.92 173.649 1665.54 168.788 Q1661.19 163.904 1661.19 155.732 Q1661.19 147.538 1665.54 142.677 Q1669.92 137.793 1677.21 137.793 Q1684.48 137.793 1688.83 142.677 Q1693.18 147.538 1693.18 155.732 Q1693.18 161.751 1690.75 166.033 Q1688.34 170.316 1683.76 172.353 Z" fill="#000000" fill-rule="evenodd" fill-opacity="1" /><path clip-path="url(#clip630)" d="M 0 0 M1712.9 138.418 L1717.58 138.418 L1717.58 172.978 L1712.9 172.978 L1712.9 138.418 Z" fill="#000000" fill-rule="evenodd" fill-opacity="1" /><path clip-path="url(#clip630)" d="M 0 0 M1726.26 139.691 L1726.26 147.052 L1735.03 147.052 L1735.03 150.362 L1726.26 150.362 L1726.26 164.436 Q1726.26 167.607 1727.12 168.51 Q1728 169.413 1730.66 169.413 L1735.03 169.413 L1735.03 172.978 L1730.66 172.978 Q1725.73 172.978 1723.85 171.149 Q1721.98 169.297 1721.98 164.436 L1721.98 150.362 L1718.85 150.362 L1718.85 147.052 L1721.98 147.052 L1721.98 139.691 L1726.26 139.691 Z" fill="#000000" fill-rule="evenodd" fill-opacity="1" /><path clip-path="url(#clip630)" d="M 0 0 M1761.68 158.95 L1761.68 161.033 L1742.09 161.033 Q1742.37 165.431 1744.73 167.746 Q1747.12 170.038 1751.35 170.038 Q1753.81 170.038 1756.1 169.436 Q1758.41 168.834 1760.68 167.63 L1760.68 171.658 Q1758.39 172.63 1755.98 173.14 Q1753.57 173.649 1751.1 173.649 Q1744.89 173.649 1741.26 170.038 Q1737.65 166.427 1737.65 160.269 Q1737.65 153.904 1741.07 150.177 Q1744.52 146.427 1750.36 146.427 Q1755.59 146.427 1758.62 149.806 Q1761.68 153.163 1761.68 158.95 M1757.42 157.7 Q1757.37 154.205 1755.45 152.121 Q1753.55 150.038 1750.4 150.038 Q1746.84 150.038 1744.68 152.052 Q1742.56 154.066 1742.23 157.723 L1757.42 157.7 Z" fill="#000000" fill-rule="evenodd" fill-opacity="1" /><path clip-path="url(#clip630)" d="M 0 0 M1781.17 151.033 Q1780.45 150.617 1779.59 150.431 Q1778.76 150.223 1777.74 150.223 Q1774.13 150.223 1772.18 152.584 Q1770.26 154.922 1770.26 159.32 L1770.26 172.978 L1765.98 172.978 L1765.98 147.052 L1770.26 147.052 L1770.26 151.08 Q1771.61 148.718 1773.76 147.584 Q1775.91 146.427 1778.99 146.427 Q1779.43 146.427 1779.96 146.496 Q1780.49 146.543 1781.14 146.658 L1781.17 151.033 Z" fill="#000000" fill-rule="evenodd" fill-opacity="1" /><path clip-path="url(#clip630)" d="M 0 0 M1797.42 159.945 Q1792.25 159.945 1790.26 161.126 Q1788.27 162.306 1788.27 165.154 Q1788.27 167.422 1789.75 168.765 Q1791.26 170.084 1793.83 170.084 Q1797.37 170.084 1799.5 167.584 Q1801.65 165.061 1801.65 160.894 L1801.65 159.945 L1797.42 159.945 M1805.91 158.186 L1805.91 172.978 L1801.65 172.978 L1801.65 169.042 Q1800.19 171.403 1798.02 172.538 Q1795.84 173.649 1792.69 173.649 Q1788.71 173.649 1786.35 171.427 Q1784.01 169.181 1784.01 165.431 Q1784.01 161.056 1786.93 158.834 Q1789.87 156.612 1795.68 156.612 L1801.65 156.612 L1801.65 156.195 Q1801.65 153.255 1799.71 151.658 Q1797.79 150.038 1794.29 150.038 Q1792.07 150.038 1789.96 150.57 Q1787.86 151.103 1785.91 152.167 L1785.91 148.232 Q1788.25 147.33 1790.45 146.89 Q1792.65 146.427 1794.73 146.427 Q1800.36 146.427 1803.13 149.343 Q1805.91 152.26 1805.91 158.186 Z" fill="#000000" fill-rule="evenodd" fill-opacity="1" /><path clip-path="url(#clip630)" d="M 0 0 M1814.59 139.691 L1814.59 147.052 L1823.36 147.052 L1823.36 150.362 L1814.59 150.362 L1814.59 164.436 Q1814.59 167.607 1815.45 168.51 Q1816.33 169.413 1818.99 169.413 L1823.36 169.413 L1823.36 172.978 L1818.99 172.978 Q1814.06 172.978 1812.18 171.149 Q1810.31 169.297 1810.31 164.436 L1810.31 150.362 L1807.18 150.362 L1807.18 147.052 L1810.31 147.052 L1810.31 139.691 L1814.59 139.691 Z" fill="#000000" fill-rule="evenodd" fill-opacity="1" /><path clip-path="url(#clip630)" d="M 0 0 M1827.83 147.052 L1832.09 147.052 L1832.09 172.978 L1827.83 172.978 L1827.83 147.052 M1827.83 136.959 L1832.09 136.959 L1832.09 142.353 L1827.83 142.353 L1827.83 136.959 Z" fill="#000000" fill-rule="evenodd" fill-opacity="1" /><path clip-path="url(#clip630)" d="M 0 0 M1846.61 150.038 Q1843.18 150.038 1841.19 152.723 Q1839.2 155.385 1839.2 160.038 Q1839.2 164.691 1841.17 167.376 Q1843.16 170.038 1846.61 170.038 Q1850.01 170.038 1852 167.353 Q1853.99 164.667 1853.99 160.038 Q1853.99 155.431 1852 152.746 Q1850.01 150.038 1846.61 150.038 M1846.61 146.427 Q1852.16 146.427 1855.33 150.038 Q1858.5 153.649 1858.5 160.038 Q1858.5 166.404 1855.33 170.038 Q1852.16 173.649 1846.61 173.649 Q1841.03 173.649 1837.86 170.038 Q1834.71 166.404 1834.71 160.038 Q1834.71 153.649 1837.86 150.038 Q1841.03 146.427 1846.61 146.427 Z" fill="#000000" fill-rule="evenodd" fill-opacity="1" /><path clip-path="url(#clip630)" d="M 0 0 M1884.52 157.329 L1884.52 172.978 L1880.26 172.978 L1880.26 157.468 Q1880.26 153.788 1878.83 151.959 Q1877.39 150.13 1874.52 150.13 Q1871.07 150.13 1869.08 152.33 Q1867.09 154.529 1867.09 158.325 L1867.09 172.978 L1862.81 172.978 L1862.81 147.052 L1867.09 147.052 L1867.09 151.08 Q1868.62 148.742 1870.68 147.584 Q1872.76 146.427 1875.47 146.427 Q1879.94 146.427 1882.23 149.205 Q1884.52 151.959 1884.52 157.329 Z" fill="#000000" fill-rule="evenodd" fill-opacity="1" /><path clip-path="url(#clip630)" d="M 0 0 M1901.58 147.052 L1905.84 147.052 L1911.17 167.283 L1916.47 147.052 L1921.49 147.052 L1926.81 167.283 L1932.11 147.052 L1936.37 147.052 L1929.59 172.978 L1924.57 172.978 L1918.99 151.728 L1913.39 172.978 L1908.36 172.978 L1901.58 147.052 Z" fill="#000000" fill-rule="evenodd" fill-opacity="1" /><path clip-path="url(#clip630)" d="M 0 0 M1940.84 147.052 L1945.1 147.052 L1945.1 172.978 L1940.84 172.978 L1940.84 147.052 M1940.84 136.959 L1945.1 136.959 L1945.1 142.353 L1940.84 142.353 L1940.84 136.959 Z" fill="#000000" fill-rule="evenodd" fill-opacity="1" /><path clip-path="url(#clip630)" d="M 0 0 M1953.78 139.691 L1953.78 147.052 L1962.55 147.052 L1962.55 150.362 L1953.78 150.362 L1953.78 164.436 Q1953.78 167.607 1954.64 168.51 Q1955.52 169.413 1958.18 169.413 L1962.55 169.413 L1962.55 172.978 L1958.18 172.978 Q1953.25 172.978 1951.37 171.149 Q1949.5 169.297 1949.5 164.436 L1949.5 150.362 L1946.37 150.362 L1946.37 147.052 L1949.5 147.052 L1949.5 139.691 L1953.78 139.691 Z" fill="#000000" fill-rule="evenodd" fill-opacity="1" /><path clip-path="url(#clip630)" d="M 0 0 M1988.57 157.329 L1988.57 172.978 L1984.31 172.978 L1984.31 157.468 Q1984.31 153.788 1982.88 151.959 Q1981.44 150.13 1978.57 150.13 Q1975.12 150.13 1973.13 152.33 Q1971.14 154.529 1971.14 158.325 L1971.14 172.978 L1966.86 172.978 L1966.86 136.959 L1971.14 136.959 L1971.14 151.08 Q1972.67 148.742 1974.73 147.584 Q1976.81 146.427 1979.52 146.427 Q1983.99 146.427 1986.28 149.205 Q1988.57 151.959 1988.57 157.329 Z" fill="#000000" fill-rule="evenodd" fill-opacity="1" /><path clip-path="url(#clip630)" d="M 0 0 M2012.23 169.089 L2012.23 182.839 L2007.95 182.839 L2007.95 147.052 L2012.23 147.052 L2012.23 150.987 Q2013.57 148.672 2015.61 147.561 Q2017.67 146.427 2020.52 146.427 Q2025.24 146.427 2028.18 150.177 Q2031.14 153.927 2031.14 160.038 Q2031.14 166.149 2028.18 169.899 Q2025.24 173.649 2020.52 173.649 Q2017.67 173.649 2015.61 172.538 Q2013.57 171.403 2012.23 169.089 M2026.72 160.038 Q2026.72 155.339 2024.78 152.677 Q2022.85 149.992 2019.48 149.992 Q2016.1 149.992 2014.15 152.677 Q2012.23 155.339 2012.23 160.038 Q2012.23 164.737 2014.15 167.422 Q2016.1 170.084 2019.48 170.084 Q2022.85 170.084 2024.78 167.422 Q2026.72 164.737 2026.72 160.038 Z" fill="#000000" fill-rule="evenodd" fill-opacity="1" /><path clip-path="url(#clip630)" d="M 0 0 M2050.63 151.033 Q2049.91 150.617 2049.06 150.431 Q2048.22 150.223 2047.21 150.223 Q2043.6 150.223 2041.65 152.584 Q2039.73 154.922 2039.73 159.32 L2039.73 172.978 L2035.45 172.978 L2035.45 147.052 L2039.73 147.052 L2039.73 151.08 Q2041.07 148.718 2043.22 147.584 Q2045.38 146.427 2048.46 146.427 Q2048.9 146.427 2049.43 146.496 Q2049.96 146.543 2050.61 146.658 L2050.63 151.033 Z" fill="#000000" fill-rule="evenodd" fill-opacity="1" /><path clip-path="url(#clip630)" d="M 0 0 M2076.23 158.95 L2076.23 161.033 L2056.65 161.033 Q2056.93 165.431 2059.29 167.746 Q2061.67 170.038 2065.91 170.038 Q2068.36 170.038 2070.66 169.436 Q2072.97 168.834 2075.24 167.63 L2075.24 171.658 Q2072.95 172.63 2070.54 173.14 Q2068.13 173.649 2065.66 173.649 Q2059.45 173.649 2055.82 170.038 Q2052.21 166.427 2052.21 160.269 Q2052.21 153.904 2055.63 150.177 Q2059.08 146.427 2064.91 146.427 Q2070.15 146.427 2073.18 149.806 Q2076.23 153.163 2076.23 158.95 M2071.97 157.7 Q2071.93 154.205 2070.01 152.121 Q2068.11 150.038 2064.96 150.038 Q2061.4 150.038 2059.24 152.052 Q2057.11 154.066 2056.79 157.723 L2071.97 157.7 Z" fill="#000000" fill-rule="evenodd" fill-opacity="1" /><path clip-path="url(#clip630)" d="M 0 0 M2077.65 147.052 L2082.16 147.052 L2090.26 168.811 L2098.36 147.052 L2102.88 147.052 L2093.16 172.978 L2087.37 172.978 L2077.65 147.052 Z" fill="#000000" fill-rule="evenodd" fill-opacity="1" /><path clip-path="url(#clip630)" d="M 0 0 M2107.34 147.052 L2111.6 147.052 L2111.6 172.978 L2107.34 172.978 L2107.34 147.052 M2107.34 136.959 L2111.6 136.959 L2111.6 142.353 L2107.34 142.353 L2107.34 136.959 Z" fill="#000000" fill-rule="evenodd" fill-opacity="1" /><path clip-path="url(#clip630)" d="M 0 0 M2126.12 150.038 Q2122.69 150.038 2120.7 152.723 Q2118.71 155.385 2118.71 160.038 Q2118.71 164.691 2120.68 167.376 Q2122.67 170.038 2126.12 170.038 Q2129.52 170.038 2131.51 167.353 Q2133.5 164.667 2133.5 160.038 Q2133.5 155.431 2131.51 152.746 Q2129.52 150.038 2126.12 150.038 M2126.12 146.427 Q2131.67 146.427 2134.84 150.038 Q2138.02 153.649 2138.02 160.038 Q2138.02 166.404 2134.84 170.038 Q2131.67 173.649 2126.12 173.649 Q2120.54 173.649 2117.37 170.038 Q2114.22 166.404 2114.22 160.038 Q2114.22 153.649 2117.37 150.038 Q2120.54 146.427 2126.12 146.427 Z" fill="#000000" fill-rule="evenodd" fill-opacity="1" /><path clip-path="url(#clip630)" d="M 0 0 M2142.04 162.746 L2142.04 147.052 L2146.3 147.052 L2146.3 162.584 Q2146.3 166.265 2147.74 168.116 Q2149.17 169.945 2152.04 169.945 Q2155.49 169.945 2157.48 167.746 Q2159.5 165.547 2159.5 161.751 L2159.5 147.052 L2163.76 147.052 L2163.76 172.978 L2159.5 172.978 L2159.5 168.996 Q2157.95 171.357 2155.89 172.515 Q2153.85 173.649 2151.14 173.649 Q2146.67 173.649 2144.36 170.871 Q2142.04 168.093 2142.04 162.746 M2152.76 146.427 L2152.76 146.427 Z" fill="#000000" fill-rule="evenodd" fill-opacity="1" /><path clip-path="url(#clip630)" d="M 0 0 M2184.75 147.816 L2184.75 151.843 Q2182.95 150.917 2181 150.455 Q2179.06 149.992 2176.97 149.992 Q2173.8 149.992 2172.21 150.964 Q2170.63 151.936 2170.63 153.88 Q2170.63 155.362 2171.77 156.218 Q2172.9 157.052 2176.33 157.816 L2177.78 158.14 Q2182.32 159.112 2184.22 160.894 Q2186.14 162.654 2186.14 165.825 Q2186.14 169.436 2183.27 171.542 Q2180.42 173.649 2175.42 173.649 Q2173.34 173.649 2171.07 173.232 Q2168.83 172.839 2166.33 172.028 L2166.33 167.63 Q2168.69 168.857 2170.98 169.482 Q2173.27 170.084 2175.52 170.084 Q2178.53 170.084 2180.15 169.066 Q2181.77 168.024 2181.77 166.149 Q2181.77 164.413 2180.59 163.487 Q2179.43 162.561 2175.47 161.704 L2173.99 161.357 Q2170.03 160.524 2168.27 158.811 Q2166.51 157.075 2166.51 154.066 Q2166.51 150.408 2169.1 148.418 Q2171.7 146.427 2176.46 146.427 Q2178.83 146.427 2180.91 146.774 Q2182.99 147.121 2184.75 147.816 Z" fill="#000000" fill-rule="evenodd" fill-opacity="1" /><path clip-path="url(#clip630)" d="M 0 0 M2217.41 143.024 L2211.07 160.223 L2223.78 160.223 L2217.41 143.024 M2214.77 138.418 L2220.08 138.418 L2233.25 172.978 L2228.39 172.978 L2225.24 164.112 L2209.66 164.112 L2206.51 172.978 L2201.58 172.978 L2214.77 138.418 Z" fill="#000000" fill-rule="evenodd" fill-opacity="1" /><polyline clip-path="url(#clip630)" style="stroke:#e26f46; stroke-width:4; stroke-opacity:1; fill:none" points="
  1464.29,216.178 1607.7,216.178 
  "/>
<path clip-path="url(#clip630)" d="M 0 0 M1648 217.254 Q1649.5 217.763 1650.91 219.43 Q1652.35 221.097 1653.78 224.013 L1658.53 233.458 L1653.5 233.458 L1649.08 224.592 Q1647.37 221.12 1645.75 219.985 Q1644.15 218.851 1641.38 218.851 L1636.28 218.851 L1636.28 233.458 L1631.61 233.458 L1631.61 198.898 L1642.16 198.898 Q1648.09 198.898 1651 201.374 Q1653.92 203.851 1653.92 208.851 Q1653.92 212.115 1652.39 214.268 Q1650.89 216.421 1648 217.254 M1636.28 202.74 L1636.28 215.009 L1642.16 215.009 Q1645.54 215.009 1647.25 213.458 Q1648.99 211.884 1648.99 208.851 Q1648.99 205.819 1647.25 204.291 Q1645.54 202.74 1642.16 202.74 L1636.28 202.74 Z" fill="#000000" fill-rule="evenodd" fill-opacity="1" /><path clip-path="url(#clip630)" d="M 0 0 M1677.21 202.069 Q1672.12 202.069 1669.11 205.865 Q1666.12 209.661 1666.12 216.212 Q1666.12 222.74 1669.11 226.536 Q1672.12 230.333 1677.21 230.333 Q1682.3 230.333 1685.26 226.536 Q1688.25 222.74 1688.25 216.212 Q1688.25 209.661 1685.26 205.865 Q1682.3 202.069 1677.21 202.069 M1683.76 232.833 L1689.92 239.569 L1684.27 239.569 L1679.15 234.036 Q1678.39 234.083 1677.97 234.106 Q1677.58 234.129 1677.21 234.129 Q1669.92 234.129 1665.54 229.268 Q1661.19 224.384 1661.19 216.212 Q1661.19 208.018 1665.54 203.157 Q1669.92 198.273 1677.21 198.273 Q1684.48 198.273 1688.83 203.157 Q1693.18 208.018 1693.18 216.212 Q1693.18 222.231 1690.75 226.513 Q1688.34 230.796 1683.76 232.833 Z" fill="#000000" fill-rule="evenodd" fill-opacity="1" /><path clip-path="url(#clip630)" d="M 0 0 M1712.9 198.898 L1717.58 198.898 L1717.58 233.458 L1712.9 233.458 L1712.9 198.898 Z" fill="#000000" fill-rule="evenodd" fill-opacity="1" /><path clip-path="url(#clip630)" d="M 0 0 M1726.26 200.171 L1726.26 207.532 L1735.03 207.532 L1735.03 210.842 L1726.26 210.842 L1726.26 224.916 Q1726.26 228.087 1727.12 228.99 Q1728 229.893 1730.66 229.893 L1735.03 229.893 L1735.03 233.458 L1730.66 233.458 Q1725.73 233.458 1723.85 231.629 Q1721.98 229.777 1721.98 224.916 L1721.98 210.842 L1718.85 210.842 L1718.85 207.532 L1721.98 207.532 L1721.98 200.171 L1726.26 200.171 Z" fill="#000000" fill-rule="evenodd" fill-opacity="1" /><path clip-path="url(#clip630)" d="M 0 0 M1761.68 219.43 L1761.68 221.513 L1742.09 221.513 Q1742.37 225.911 1744.73 228.226 Q1747.12 230.518 1751.35 230.518 Q1753.81 230.518 1756.1 229.916 Q1758.41 229.314 1760.68 228.11 L1760.68 232.138 Q1758.39 233.11 1755.98 233.62 Q1753.57 234.129 1751.1 234.129 Q1744.89 234.129 1741.26 230.518 Q1737.65 226.907 1737.65 220.749 Q1737.65 214.384 1741.07 210.657 Q1744.52 206.907 1750.36 206.907 Q1755.59 206.907 1758.62 210.286 Q1761.68 213.643 1761.68 219.43 M1757.42 218.18 Q1757.37 214.685 1755.45 212.601 Q1753.55 210.518 1750.4 210.518 Q1746.84 210.518 1744.68 212.532 Q1742.56 214.546 1742.23 218.203 L1757.42 218.18 Z" fill="#000000" fill-rule="evenodd" fill-opacity="1" /><path clip-path="url(#clip630)" d="M 0 0 M1781.17 211.513 Q1780.45 211.097 1779.59 210.911 Q1778.76 210.703 1777.74 210.703 Q1774.13 210.703 1772.18 213.064 Q1770.26 215.402 1770.26 219.8 L1770.26 233.458 L1765.98 233.458 L1765.98 207.532 L1770.26 207.532 L1770.26 211.56 Q1771.61 209.198 1773.76 208.064 Q1775.91 206.907 1778.99 206.907 Q1779.43 206.907 1779.96 206.976 Q1780.49 207.023 1781.14 207.138 L1781.17 211.513 Z" fill="#000000" fill-rule="evenodd" fill-opacity="1" /><path clip-path="url(#clip630)" d="M 0 0 M1797.42 220.425 Q1792.25 220.425 1790.26 221.606 Q1788.27 222.786 1788.27 225.634 Q1788.27 227.902 1789.75 229.245 Q1791.26 230.564 1793.83 230.564 Q1797.37 230.564 1799.5 228.064 Q1801.65 225.541 1801.65 221.374 L1801.65 220.425 L1797.42 220.425 M1805.91 218.666 L1805.91 233.458 L1801.65 233.458 L1801.65 229.522 Q1800.19 231.883 1798.02 233.018 Q1795.84 234.129 1792.69 234.129 Q1788.71 234.129 1786.35 231.907 Q1784.01 229.661 1784.01 225.911 Q1784.01 221.536 1786.93 219.314 Q1789.87 217.092 1795.68 217.092 L1801.65 217.092 L1801.65 216.675 Q1801.65 213.735 1799.71 212.138 Q1797.79 210.518 1794.29 210.518 Q1792.07 210.518 1789.96 211.05 Q1787.86 211.583 1785.91 212.647 L1785.91 208.712 Q1788.25 207.81 1790.45 207.37 Q1792.65 206.907 1794.73 206.907 Q1800.36 206.907 1803.13 209.823 Q1805.91 212.74 1805.91 218.666 Z" fill="#000000" fill-rule="evenodd" fill-opacity="1" /><path clip-path="url(#clip630)" d="M 0 0 M1814.59 200.171 L1814.59 207.532 L1823.36 207.532 L1823.36 210.842 L1814.59 210.842 L1814.59 224.916 Q1814.59 228.087 1815.45 228.99 Q1816.33 229.893 1818.99 229.893 L1823.36 229.893 L1823.36 233.458 L1818.99 233.458 Q1814.06 233.458 1812.18 231.629 Q1810.31 229.777 1810.31 224.916 L1810.31 210.842 L1807.18 210.842 L1807.18 207.532 L1810.31 207.532 L1810.31 200.171 L1814.59 200.171 Z" fill="#000000" fill-rule="evenodd" fill-opacity="1" /><path clip-path="url(#clip630)" d="M 0 0 M1827.83 207.532 L1832.09 207.532 L1832.09 233.458 L1827.83 233.458 L1827.83 207.532 M1827.83 197.439 L1832.09 197.439 L1832.09 202.833 L1827.83 202.833 L1827.83 197.439 Z" fill="#000000" fill-rule="evenodd" fill-opacity="1" /><path clip-path="url(#clip630)" d="M 0 0 M1846.61 210.518 Q1843.18 210.518 1841.19 213.203 Q1839.2 215.865 1839.2 220.518 Q1839.2 225.171 1841.17 227.856 Q1843.16 230.518 1846.61 230.518 Q1850.01 230.518 1852 227.833 Q1853.99 225.147 1853.99 220.518 Q1853.99 215.911 1852 213.226 Q1850.01 210.518 1846.61 210.518 M1846.61 206.907 Q1852.16 206.907 1855.33 210.518 Q1858.5 214.129 1858.5 220.518 Q1858.5 226.884 1855.33 230.518 Q1852.16 234.129 1846.61 234.129 Q1841.03 234.129 1837.86 230.518 Q1834.71 226.884 1834.71 220.518 Q1834.71 214.129 1837.86 210.518 Q1841.03 206.907 1846.61 206.907 Z" fill="#000000" fill-rule="evenodd" fill-opacity="1" /><path clip-path="url(#clip630)" d="M 0 0 M1884.52 217.809 L1884.52 233.458 L1880.26 233.458 L1880.26 217.948 Q1880.26 214.268 1878.83 212.439 Q1877.39 210.61 1874.52 210.61 Q1871.07 210.61 1869.08 212.81 Q1867.09 215.009 1867.09 218.805 L1867.09 233.458 L1862.81 233.458 L1862.81 207.532 L1867.09 207.532 L1867.09 211.56 Q1868.62 209.222 1870.68 208.064 Q1872.76 206.907 1875.47 206.907 Q1879.94 206.907 1882.23 209.685 Q1884.52 212.439 1884.52 217.809 Z" fill="#000000" fill-rule="evenodd" fill-opacity="1" /><path clip-path="url(#clip630)" d="M 0 0 M1901.58 207.532 L1905.84 207.532 L1911.17 227.763 L1916.47 207.532 L1921.49 207.532 L1926.81 227.763 L1932.11 207.532 L1936.37 207.532 L1929.59 233.458 L1924.57 233.458 L1918.99 212.208 L1913.39 233.458 L1908.36 233.458 L1901.58 207.532 Z" fill="#000000" fill-rule="evenodd" fill-opacity="1" /><path clip-path="url(#clip630)" d="M 0 0 M1940.84 207.532 L1945.1 207.532 L1945.1 233.458 L1940.84 233.458 L1940.84 207.532 M1940.84 197.439 L1945.1 197.439 L1945.1 202.833 L1940.84 202.833 L1940.84 197.439 Z" fill="#000000" fill-rule="evenodd" fill-opacity="1" /><path clip-path="url(#clip630)" d="M 0 0 M1953.78 200.171 L1953.78 207.532 L1962.55 207.532 L1962.55 210.842 L1953.78 210.842 L1953.78 224.916 Q1953.78 228.087 1954.64 228.99 Q1955.52 229.893 1958.18 229.893 L1962.55 229.893 L1962.55 233.458 L1958.18 233.458 Q1953.25 233.458 1951.37 231.629 Q1949.5 229.777 1949.5 224.916 L1949.5 210.842 L1946.37 210.842 L1946.37 207.532 L1949.5 207.532 L1949.5 200.171 L1953.78 200.171 Z" fill="#000000" fill-rule="evenodd" fill-opacity="1" /><path clip-path="url(#clip630)" d="M 0 0 M1988.57 217.809 L1988.57 233.458 L1984.31 233.458 L1984.31 217.948 Q1984.31 214.268 1982.88 212.439 Q1981.44 210.61 1978.57 210.61 Q1975.12 210.61 1973.13 212.81 Q1971.14 215.009 1971.14 218.805 L1971.14 233.458 L1966.86 233.458 L1966.86 197.439 L1971.14 197.439 L1971.14 211.56 Q1972.67 209.222 1974.73 208.064 Q1976.81 206.907 1979.52 206.907 Q1983.99 206.907 1986.28 209.685 Q1988.57 212.439 1988.57 217.809 Z" fill="#000000" fill-rule="evenodd" fill-opacity="1" /><path clip-path="url(#clip630)" d="M 0 0 M2029.66 217.809 L2029.66 233.458 L2025.4 233.458 L2025.4 217.948 Q2025.4 214.268 2023.97 212.439 Q2022.53 210.61 2019.66 210.61 Q2016.21 210.61 2014.22 212.81 Q2012.23 215.009 2012.23 218.805 L2012.23 233.458 L2007.95 233.458 L2007.95 207.532 L2012.23 207.532 L2012.23 211.56 Q2013.76 209.222 2015.82 208.064 Q2017.9 206.907 2020.61 206.907 Q2025.08 206.907 2027.37 209.685 Q2029.66 212.439 2029.66 217.809 Z" fill="#000000" fill-rule="evenodd" fill-opacity="1" /><path clip-path="url(#clip630)" d="M 0 0 M2056.3 219.43 L2056.3 221.513 L2036.72 221.513 Q2037 225.911 2039.36 228.226 Q2041.74 230.518 2045.98 230.518 Q2048.43 230.518 2050.72 229.916 Q2053.04 229.314 2055.31 228.11 L2055.31 232.138 Q2053.02 233.11 2050.61 233.62 Q2048.2 234.129 2045.72 234.129 Q2039.52 234.129 2035.89 230.518 Q2032.28 226.907 2032.28 220.749 Q2032.28 214.384 2035.7 210.657 Q2039.15 206.907 2044.98 206.907 Q2050.22 206.907 2053.25 210.286 Q2056.3 213.643 2056.3 219.43 M2052.04 218.18 Q2052 214.685 2050.08 212.601 Q2048.18 210.518 2045.03 210.518 Q2041.47 210.518 2039.31 212.532 Q2037.18 214.546 2036.86 218.203 L2052.04 218.18 Z" fill="#000000" fill-rule="evenodd" fill-opacity="1" /><path clip-path="url(#clip630)" d="M 0 0 M2058.29 207.532 L2062.55 207.532 L2067.88 227.763 L2073.18 207.532 L2078.2 207.532 L2083.53 227.763 L2088.83 207.532 L2093.09 207.532 L2086.3 233.458 L2081.28 233.458 L2075.7 212.208 L2070.1 233.458 L2065.08 233.458 L2058.29 207.532 Z" fill="#000000" fill-rule="evenodd" fill-opacity="1" /><path clip-path="url(#clip630)" d="M 0 0 M2124.36 203.504 L2118.02 220.703 L2130.72 220.703 L2124.36 203.504 M2121.72 198.898 L2127.02 198.898 L2140.19 233.458 L2135.33 233.458 L2132.18 224.592 L2116.6 224.592 L2113.46 233.458 L2108.53 233.458 L2121.72 198.898 Z" fill="#000000" fill-rule="evenodd" fill-opacity="1" /></svg>
