<?xml version="1.0" encoding="utf-8"?>
<svg xmlns="http://www.w3.org/2000/svg" xmlns:xlink="http://www.w3.org/1999/xlink" width="600" height="400" viewBox="0 0 2400 1600">
<defs>
  <clipPath id="clip590">
    <rect x="0" y="0" width="2400" height="1600"/>
  </clipPath>
</defs>
<path clip-path="url(#clip590)" d="
M0 1600 L2400 1600 L2400 0 L0 0  Z
  " fill="#ffffff" fill-rule="evenodd" fill-opacity="1"/>
<defs>
  <clipPath id="clip591">
    <rect x="480" y="0" width="1681" height="1600"/>
  </clipPath>
</defs>
<path clip-path="url(#clip590)" d="
M201.597 1486.45 L2352.76 1486.45 L2352.76 47.2441 L201.597 47.2441  Z
  " fill="#ffffff" fill-rule="evenodd" fill-opacity="1"/>
<defs>
  <clipPath id="clip592">
    <rect x="201" y="47" width="2152" height="1440"/>
  </clipPath>
</defs>
<polyline clip-path="url(#clip592)" style="stroke:#000000; stroke-width:2; stroke-opacity:0.1; fill:none" points="
  221.891,1486.45 221.891,47.2441 
  "/>
<polyline clip-path="url(#clip592)" style="stroke:#000000; stroke-width:2; stroke-opacity:0.1; fill:none" points="
  627.77,1486.45 627.77,47.2441 
  "/>
<polyline clip-path="url(#clip592)" style="stroke:#000000; stroke-width:2; stroke-opacity:0.1; fill:none" points="
  1033.65,1486.45 1033.65,47.2441 
  "/>
<polyline clip-path="url(#clip592)" style="stroke:#000000; stroke-width:2; stroke-opacity:0.1; fill:none" points="
  1439.53,1486.45 1439.53,47.2441 
  "/>
<polyline clip-path="url(#clip592)" style="stroke:#000000; stroke-width:2; stroke-opacity:0.1; fill:none" points="
  1845.41,1486.45 1845.41,47.2441 
  "/>
<polyline clip-path="url(#clip592)" style="stroke:#000000; stroke-width:2; stroke-opacity:0.1; fill:none" points="
  2251.29,1486.45 2251.29,47.2441 
  "/>
<polyline clip-path="url(#clip590)" style="stroke:#000000; stroke-width:4; stroke-opacity:1; fill:none" points="
  201.597,1486.45 2352.76,1486.45 
  "/>
<polyline clip-path="url(#clip590)" style="stroke:#000000; stroke-width:4; stroke-opacity:1; fill:none" points="
  221.891,1486.45 221.891,1469.18 
  "/>
<polyline clip-path="url(#clip590)" style="stroke:#000000; stroke-width:4; stroke-opacity:1; fill:none" points="
  627.77,1486.45 627.77,1469.18 
  "/>
<polyline clip-path="url(#clip590)" style="stroke:#000000; stroke-width:4; stroke-opacity:1; fill:none" points="
  1033.65,1486.45 1033.65,1469.18 
  "/>
<polyline clip-path="url(#clip590)" style="stroke:#000000; stroke-width:4; stroke-opacity:1; fill:none" points="
  1439.53,1486.45 1439.53,1469.18 
  "/>
<polyline clip-path="url(#clip590)" style="stroke:#000000; stroke-width:4; stroke-opacity:1; fill:none" points="
  1845.41,1486.45 1845.41,1469.18 
  "/>
<polyline clip-path="url(#clip590)" style="stroke:#000000; stroke-width:4; stroke-opacity:1; fill:none" points="
  2251.29,1486.45 2251.29,1469.18 
  "/>
<path clip-path="url(#clip590)" d="M 0 0 M221.891 1515.64 Q218.279 1515.64 216.451 1519.2 Q214.645 1522.75 214.645 1529.87 Q214.645 1536.98 216.451 1540.55 Q218.279 1544.09 221.891 1544.09 Q225.525 1544.09 227.33 1540.55 Q229.159 1536.98 229.159 1529.87 Q229.159 1522.75 227.33 1519.2 Q225.525 1515.64 221.891 1515.64 M221.891 1511.93 Q227.701 1511.93 230.756 1516.54 Q233.835 1521.12 233.835 1529.87 Q233.835 1538.6 230.756 1543.21 Q227.701 1547.79 221.891 1547.79 Q216.08 1547.79 213.002 1543.21 Q209.946 1538.6 209.946 1529.87 Q209.946 1521.12 213.002 1516.54 Q216.08 1511.93 221.891 1511.93 Z" fill="#000000" fill-rule="evenodd" fill-opacity="1" /><path clip-path="url(#clip590)" d="M 0 0 M604.645 1543.18 L612.284 1543.18 L612.284 1516.82 L603.973 1518.49 L603.973 1514.23 L612.237 1512.56 L616.913 1512.56 L616.913 1543.18 L624.552 1543.18 L624.552 1547.12 L604.645 1547.12 L604.645 1543.18 Z" fill="#000000" fill-rule="evenodd" fill-opacity="1" /><path clip-path="url(#clip590)" d="M 0 0 M639.621 1515.64 Q636.01 1515.64 634.182 1519.2 Q632.376 1522.75 632.376 1529.87 Q632.376 1536.98 634.182 1540.55 Q636.01 1544.09 639.621 1544.09 Q643.256 1544.09 645.061 1540.55 Q646.89 1536.98 646.89 1529.87 Q646.89 1522.75 645.061 1519.2 Q643.256 1515.64 639.621 1515.64 M639.621 1511.93 Q645.432 1511.93 648.487 1516.54 Q651.566 1521.12 651.566 1529.87 Q651.566 1538.6 648.487 1543.21 Q645.432 1547.79 639.621 1547.79 Q633.811 1547.79 630.733 1543.21 Q627.677 1538.6 627.677 1529.87 Q627.677 1521.12 630.733 1516.54 Q633.811 1511.93 639.621 1511.93 Z" fill="#000000" fill-rule="evenodd" fill-opacity="1" /><path clip-path="url(#clip590)" d="M 0 0 M1014.79 1543.18 L1031.11 1543.18 L1031.11 1547.12 L1009.17 1547.12 L1009.17 1543.18 Q1011.83 1540.43 1016.42 1535.8 Q1021.02 1531.15 1022.2 1529.81 Q1024.45 1527.28 1025.33 1525.55 Q1026.23 1523.79 1026.23 1522.1 Q1026.23 1519.34 1024.29 1517.61 Q1022.36 1515.87 1019.26 1515.87 Q1017.06 1515.87 1014.61 1516.63 Q1012.18 1517.4 1009.4 1518.95 L1009.4 1514.23 Q1012.23 1513.09 1014.68 1512.51 Q1017.13 1511.93 1019.17 1511.93 Q1024.54 1511.93 1027.73 1514.62 Q1030.93 1517.31 1030.93 1521.8 Q1030.93 1523.93 1030.12 1525.85 Q1029.33 1527.74 1027.23 1530.34 Q1026.65 1531.01 1023.54 1534.23 Q1020.44 1537.42 1014.79 1543.18 Z" fill="#000000" fill-rule="evenodd" fill-opacity="1" /><path clip-path="url(#clip590)" d="M 0 0 M1046.18 1515.64 Q1042.57 1515.64 1040.74 1519.2 Q1038.94 1522.75 1038.94 1529.87 Q1038.94 1536.98 1040.74 1540.55 Q1042.57 1544.09 1046.18 1544.09 Q1049.82 1544.09 1051.62 1540.55 Q1053.45 1536.98 1053.45 1529.87 Q1053.45 1522.75 1051.62 1519.2 Q1049.82 1515.64 1046.18 1515.64 M1046.18 1511.93 Q1051.99 1511.93 1055.05 1516.54 Q1058.13 1521.12 1058.13 1529.87 Q1058.13 1538.6 1055.05 1543.21 Q1051.99 1547.79 1046.18 1547.79 Q1040.37 1547.79 1037.29 1543.21 Q1034.24 1538.6 1034.24 1529.87 Q1034.24 1521.12 1037.29 1516.54 Q1040.37 1511.93 1046.18 1511.93 Z" fill="#000000" fill-rule="evenodd" fill-opacity="1" /><path clip-path="url(#clip590)" d="M 0 0 M1430.27 1528.49 Q1433.63 1529.2 1435.5 1531.47 Q1437.4 1533.74 1437.4 1537.07 Q1437.4 1542.19 1433.88 1544.99 Q1430.36 1547.79 1423.88 1547.79 Q1421.7 1547.79 1419.39 1547.35 Q1417.1 1546.93 1414.64 1546.08 L1414.64 1541.56 Q1416.59 1542.7 1418.9 1543.28 Q1421.22 1543.86 1423.74 1543.86 Q1428.14 1543.86 1430.43 1542.12 Q1432.75 1540.38 1432.75 1537.07 Q1432.75 1534.02 1430.59 1532.31 Q1428.46 1530.57 1424.64 1530.57 L1420.62 1530.57 L1420.62 1526.73 L1424.83 1526.73 Q1428.28 1526.73 1430.11 1525.36 Q1431.94 1523.97 1431.94 1521.38 Q1431.94 1518.72 1430.04 1517.31 Q1428.16 1515.87 1424.64 1515.87 Q1422.72 1515.87 1420.52 1516.29 Q1418.32 1516.7 1415.69 1517.58 L1415.69 1513.42 Q1418.35 1512.68 1420.66 1512.31 Q1423 1511.93 1425.06 1511.93 Q1430.38 1511.93 1433.49 1514.37 Q1436.59 1516.77 1436.59 1520.89 Q1436.59 1523.76 1434.94 1525.75 Q1433.3 1527.72 1430.27 1528.49 Z" fill="#000000" fill-rule="evenodd" fill-opacity="1" /><path clip-path="url(#clip590)" d="M 0 0 M1452.47 1515.64 Q1448.86 1515.64 1447.03 1519.2 Q1445.22 1522.75 1445.22 1529.87 Q1445.22 1536.98 1447.03 1540.55 Q1448.86 1544.09 1452.47 1544.09 Q1456.1 1544.09 1457.91 1540.55 Q1459.74 1536.98 1459.74 1529.87 Q1459.74 1522.75 1457.91 1519.2 Q1456.1 1515.64 1452.47 1515.64 M1452.47 1511.93 Q1458.28 1511.93 1461.33 1516.54 Q1464.41 1521.12 1464.41 1529.87 Q1464.41 1538.6 1461.33 1543.21 Q1458.28 1547.79 1452.47 1547.79 Q1446.66 1547.79 1443.58 1543.21 Q1440.52 1538.6 1440.52 1529.87 Q1440.52 1521.12 1443.58 1516.54 Q1446.66 1511.93 1452.47 1511.93 Z" fill="#000000" fill-rule="evenodd" fill-opacity="1" /><path clip-path="url(#clip590)" d="M 0 0 M1834.91 1516.63 L1823.1 1535.08 L1834.91 1535.08 L1834.91 1516.63 M1833.68 1512.56 L1839.56 1512.56 L1839.56 1535.08 L1844.49 1535.08 L1844.49 1538.97 L1839.56 1538.97 L1839.56 1547.12 L1834.91 1547.12 L1834.91 1538.97 L1819.31 1538.97 L1819.31 1534.46 L1833.68 1512.56 Z" fill="#000000" fill-rule="evenodd" fill-opacity="1" /><path clip-path="url(#clip590)" d="M 0 0 M1859.56 1515.64 Q1855.95 1515.64 1854.12 1519.2 Q1852.32 1522.75 1852.32 1529.87 Q1852.32 1536.98 1854.12 1540.55 Q1855.95 1544.09 1859.56 1544.09 Q1863.2 1544.09 1865 1540.55 Q1866.83 1536.98 1866.83 1529.87 Q1866.83 1522.75 1865 1519.2 Q1863.2 1515.64 1859.56 1515.64 M1859.56 1511.93 Q1865.37 1511.93 1868.43 1516.54 Q1871.51 1521.12 1871.51 1529.87 Q1871.51 1538.6 1868.43 1543.21 Q1865.37 1547.79 1859.56 1547.79 Q1853.75 1547.79 1850.67 1543.21 Q1847.62 1538.6 1847.62 1529.87 Q1847.62 1521.12 1850.67 1516.54 Q1853.75 1511.93 1859.56 1511.93 Z" fill="#000000" fill-rule="evenodd" fill-opacity="1" /><path clip-path="url(#clip590)" d="M 0 0 M2228.06 1512.56 L2246.41 1512.56 L2246.41 1516.5 L2232.34 1516.5 L2232.34 1524.97 Q2233.36 1524.62 2234.38 1524.46 Q2235.4 1524.27 2236.41 1524.27 Q2242.2 1524.27 2245.58 1527.44 Q2248.96 1530.62 2248.96 1536.03 Q2248.96 1541.61 2245.49 1544.71 Q2242.02 1547.79 2235.7 1547.79 Q2233.52 1547.79 2231.25 1547.42 Q2229.01 1547.05 2226.6 1546.31 L2226.6 1541.61 Q2228.68 1542.74 2230.9 1543.3 Q2233.13 1543.86 2235.6 1543.86 Q2239.61 1543.86 2241.95 1541.75 Q2244.28 1539.64 2244.28 1536.03 Q2244.28 1532.42 2241.95 1530.31 Q2239.61 1528.21 2235.6 1528.21 Q2233.73 1528.21 2231.85 1528.62 Q2230 1529.04 2228.06 1529.92 L2228.06 1512.56 Z" fill="#000000" fill-rule="evenodd" fill-opacity="1" /><path clip-path="url(#clip590)" d="M 0 0 M2264.03 1515.64 Q2260.42 1515.64 2258.59 1519.2 Q2256.78 1522.75 2256.78 1529.87 Q2256.78 1536.98 2258.59 1540.55 Q2260.42 1544.09 2264.03 1544.09 Q2267.66 1544.09 2269.47 1540.55 Q2271.3 1536.98 2271.3 1529.87 Q2271.3 1522.75 2269.47 1519.2 Q2267.66 1515.64 2264.03 1515.64 M2264.03 1511.93 Q2269.84 1511.93 2272.89 1516.54 Q2275.97 1521.12 2275.97 1529.87 Q2275.97 1538.6 2272.89 1543.21 Q2269.84 1547.79 2264.03 1547.79 Q2258.22 1547.79 2255.14 1543.21 Q2252.08 1538.6 2252.08 1529.87 Q2252.08 1521.12 2255.14 1516.54 Q2258.22 1511.93 2264.03 1511.93 Z" fill="#000000" fill-rule="evenodd" fill-opacity="1" /><polyline clip-path="url(#clip592)" style="stroke:#000000; stroke-width:2; stroke-opacity:0.1; fill:none" points="
  201.597,1377.42 2352.76,1377.42 
  "/>
<polyline clip-path="url(#clip592)" style="stroke:#000000; stroke-width:2; stroke-opacity:0.1; fill:none" points="
  201.597,938.791 2352.76,938.791 
  "/>
<polyline clip-path="url(#clip592)" style="stroke:#000000; stroke-width:2; stroke-opacity:0.1; fill:none" points="
  201.597,500.161 2352.76,500.161 
  "/>
<polyline clip-path="url(#clip592)" style="stroke:#000000; stroke-width:2; stroke-opacity:0.1; fill:none" points="
  201.597,61.5304 2352.76,61.5304 
  "/>
<polyline clip-path="url(#clip590)" style="stroke:#000000; stroke-width:4; stroke-opacity:1; fill:none" points="
  201.597,1486.45 201.597,47.2441 
  "/>
<polyline clip-path="url(#clip590)" style="stroke:#000000; stroke-width:4; stroke-opacity:1; fill:none" points="
  201.597,1377.42 227.41,1377.42 
  "/>
<polyline clip-path="url(#clip590)" style="stroke:#000000; stroke-width:4; stroke-opacity:1; fill:none" points="
  201.597,938.791 227.41,938.791 
  "/>
<polyline clip-path="url(#clip590)" style="stroke:#000000; stroke-width:4; stroke-opacity:1; fill:none" points="
  201.597,500.161 227.41,500.161 
  "/>
<polyline clip-path="url(#clip590)" style="stroke:#000000; stroke-width:4; stroke-opacity:1; fill:none" points="
  201.597,61.5304 227.41,61.5304 
  "/>
<path clip-path="url(#clip590)" d="M 0 0 M52.4722 1397.21 L60.111 1397.21 L60.111 1370.85 L51.8009 1372.51 L51.8009 1368.26 L60.0647 1366.59 L64.7406 1366.59 L64.7406 1397.21 L72.3795 1397.21 L72.3795 1401.15 L52.4722 1401.15 L52.4722 1397.21 Z" fill="#000000" fill-rule="evenodd" fill-opacity="1" /><path clip-path="url(#clip590)" d="M 0 0 M87.4488 1369.67 Q83.8377 1369.67 82.009 1373.23 Q80.2035 1376.77 80.2035 1383.9 Q80.2035 1391.01 82.009 1394.57 Q83.8377 1398.12 87.4488 1398.12 Q91.0831 1398.12 92.8886 1394.57 Q94.7173 1391.01 94.7173 1383.9 Q94.7173 1376.77 92.8886 1373.23 Q91.0831 1369.67 87.4488 1369.67 M87.4488 1365.96 Q93.259 1365.96 96.3145 1370.57 Q99.3932 1375.15 99.3932 1383.9 Q99.3932 1392.63 96.3145 1397.24 Q93.259 1401.82 87.4488 1401.82 Q81.6387 1401.82 78.56 1397.24 Q75.5044 1392.63 75.5044 1383.9 Q75.5044 1375.15 78.56 1370.57 Q81.6387 1365.96 87.4488 1365.96 Z" fill="#000000" fill-rule="evenodd" fill-opacity="1" /><path clip-path="url(#clip590)" d="M 0 0 M99.3932 1360.07 L123.505 1360.07 L123.505 1363.26 L99.3932 1363.26 L99.3932 1360.07 Z" fill="#000000" fill-rule="evenodd" fill-opacity="1" /><path clip-path="url(#clip590)" d="M 0 0 M128.282 1370.54 L134.488 1370.54 L134.488 1349.12 L127.737 1350.47 L127.737 1347.01 L134.451 1345.66 L138.25 1345.66 L138.25 1370.54 L144.457 1370.54 L144.457 1373.74 L128.282 1373.74 L128.282 1370.54 Z" fill="#000000" fill-rule="evenodd" fill-opacity="1" /><path clip-path="url(#clip590)" d="M 0 0 M148.613 1345.66 L163.528 1345.66 L163.528 1348.86 L152.093 1348.86 L152.093 1355.74 Q152.92 1355.46 153.748 1355.33 Q154.575 1355.18 155.403 1355.18 Q160.105 1355.18 162.851 1357.75 Q165.597 1360.33 165.597 1364.73 Q165.597 1369.26 162.775 1371.78 Q159.954 1374.28 154.82 1374.28 Q153.052 1374.28 151.209 1373.98 Q149.384 1373.68 147.428 1373.08 L147.428 1369.26 Q149.121 1370.18 150.926 1370.64 Q152.732 1371.09 154.744 1371.09 Q157.998 1371.09 159.898 1369.37 Q161.797 1367.66 161.797 1364.73 Q161.797 1361.8 159.898 1360.08 Q157.998 1358.37 154.744 1358.37 Q153.221 1358.37 151.698 1358.71 Q150.193 1359.05 148.613 1359.76 L148.613 1345.66 Z" fill="#000000" fill-rule="evenodd" fill-opacity="1" /><path clip-path="url(#clip590)" d="M 0 0 M51.6634 958.583 L59.3023 958.583 L59.3023 932.218 L50.9921 933.884 L50.9921 929.625 L59.256 927.958 L63.9319 927.958 L63.9319 958.583 L71.5707 958.583 L71.5707 962.518 L51.6634 962.518 L51.6634 958.583 Z" fill="#000000" fill-rule="evenodd" fill-opacity="1" /><path clip-path="url(#clip590)" d="M 0 0 M86.6401 931.037 Q83.029 931.037 81.2003 934.602 Q79.3948 938.144 79.3948 945.273 Q79.3948 952.38 81.2003 955.944 Q83.029 959.486 86.6401 959.486 Q90.2743 959.486 92.0799 955.944 Q93.9086 952.38 93.9086 945.273 Q93.9086 938.144 92.0799 934.602 Q90.2743 931.037 86.6401 931.037 M86.6401 927.333 Q92.4502 927.333 95.5058 931.94 Q98.5845 936.523 98.5845 945.273 Q98.5845 954 95.5058 958.606 Q92.4502 963.19 86.6401 963.19 Q80.8299 963.19 77.7512 958.606 Q74.6957 954 74.6957 945.273 Q74.6957 936.523 77.7512 931.94 Q80.8299 927.333 86.6401 927.333 Z" fill="#000000" fill-rule="evenodd" fill-opacity="1" /><path clip-path="url(#clip590)" d="M 0 0 M98.5845 921.435 L122.696 921.435 L122.696 924.632 L98.5845 924.632 L98.5845 921.435 Z" fill="#000000" fill-rule="evenodd" fill-opacity="1" /><path clip-path="url(#clip590)" d="M 0 0 M127.473 931.911 L133.68 931.911 L133.68 910.489 L126.928 911.843 L126.928 908.382 L133.642 907.028 L137.441 907.028 L137.441 931.911 L143.648 931.911 L143.648 935.108 L127.473 935.108 L127.473 931.911 Z" fill="#000000" fill-rule="evenodd" fill-opacity="1" /><path clip-path="url(#clip590)" d="M 0 0 M155.892 909.53 Q152.958 909.53 151.472 912.426 Q150.005 915.303 150.005 921.096 Q150.005 926.87 151.472 929.767 Q152.958 932.644 155.892 932.644 Q158.845 932.644 160.312 929.767 Q161.797 926.87 161.797 921.096 Q161.797 915.303 160.312 912.426 Q158.845 909.53 155.892 909.53 M155.892 906.52 Q160.612 906.52 163.095 910.263 Q165.597 913.987 165.597 921.096 Q165.597 928.187 163.095 931.93 Q160.612 935.654 155.892 935.654 Q151.171 935.654 148.67 931.93 Q146.187 928.187 146.187 921.096 Q146.187 913.987 148.67 910.263 Q151.171 906.52 155.892 906.52 Z" fill="#000000" fill-rule="evenodd" fill-opacity="1" /><path clip-path="url(#clip590)" d="M 0 0 M73.424 519.953 L81.0629 519.953 L81.0629 493.587 L72.7527 495.254 L72.7527 490.995 L81.0166 489.328 L85.6925 489.328 L85.6925 519.953 L93.3313 519.953 L93.3313 523.888 L73.424 523.888 L73.424 519.953 Z" fill="#000000" fill-rule="evenodd" fill-opacity="1" /><path clip-path="url(#clip590)" d="M 0 0 M108.401 492.407 Q104.79 492.407 102.961 495.972 Q101.155 499.513 101.155 506.643 Q101.155 513.749 102.961 517.314 Q104.79 520.856 108.401 520.856 Q112.035 520.856 113.84 517.314 Q115.669 513.749 115.669 506.643 Q115.669 499.513 113.84 495.972 Q112.035 492.407 108.401 492.407 M108.401 488.703 Q114.211 488.703 117.266 493.31 Q120.345 497.893 120.345 506.643 Q120.345 515.37 117.266 519.976 Q114.211 524.56 108.401 524.56 Q102.591 524.56 99.5118 519.976 Q96.4563 515.37 96.4563 506.643 Q96.4563 497.893 99.5118 493.31 Q102.591 488.703 108.401 488.703 Z" fill="#000000" fill-rule="evenodd" fill-opacity="1" /><path clip-path="url(#clip590)" d="M 0 0 M120.345 482.805 L144.457 482.805 L144.457 486.002 L120.345 486.002 L120.345 482.805 Z" fill="#000000" fill-rule="evenodd" fill-opacity="1" /><path clip-path="url(#clip590)" d="M 0 0 M148.613 468.398 L163.528 468.398 L163.528 471.595 L152.093 471.595 L152.093 478.479 Q152.92 478.197 153.748 478.065 Q154.575 477.915 155.403 477.915 Q160.105 477.915 162.851 480.491 Q165.597 483.068 165.597 487.469 Q165.597 492.002 162.775 494.522 Q159.954 497.023 154.82 497.023 Q153.052 497.023 151.209 496.722 Q149.384 496.421 147.428 495.82 L147.428 492.002 Q149.121 492.923 150.926 493.375 Q152.732 493.826 154.744 493.826 Q157.998 493.826 159.898 492.114 Q161.797 490.403 161.797 487.469 Q161.797 484.535 159.898 482.823 Q157.998 481.112 154.744 481.112 Q153.221 481.112 151.698 481.45 Q150.193 481.789 148.613 482.504 L148.613 468.398 Z" fill="#000000" fill-rule="evenodd" fill-opacity="1" /><path clip-path="url(#clip590)" d="M 0 0 M99.2659 81.3229 L106.905 81.3229 L106.905 54.9573 L98.5946 56.6239 L98.5946 52.3647 L106.858 50.698 L111.534 50.698 L111.534 81.3229 L119.173 81.3229 L119.173 85.258 L99.2659 85.258 L99.2659 81.3229 Z" fill="#000000" fill-rule="evenodd" fill-opacity="1" /><path clip-path="url(#clip590)" d="M 0 0 M134.243 53.7767 Q130.631 53.7767 128.803 57.3415 Q126.997 60.8832 126.997 68.0128 Q126.997 75.1192 128.803 78.684 Q130.631 82.2257 134.243 82.2257 Q137.877 82.2257 139.682 78.684 Q141.511 75.1192 141.511 68.0128 Q141.511 60.8832 139.682 57.3415 Q137.877 53.7767 134.243 53.7767 M134.243 50.073 Q140.053 50.073 143.108 54.6795 Q146.187 59.2628 146.187 68.0128 Q146.187 76.7396 143.108 81.346 Q140.053 85.9293 134.243 85.9293 Q128.432 85.9293 125.354 81.346 Q122.298 76.7396 122.298 68.0128 Q122.298 59.2628 125.354 54.6795 Q128.432 50.073 134.243 50.073 Z" fill="#000000" fill-rule="evenodd" fill-opacity="1" /><path clip-path="url(#clip590)" d="M 0 0 M155.892 32.2691 Q152.958 32.2691 151.472 35.1655 Q150.005 38.0431 150.005 43.8359 Q150.005 49.6098 151.472 52.5062 Q152.958 55.3838 155.892 55.3838 Q158.845 55.3838 160.312 52.5062 Q161.797 49.6098 161.797 43.8359 Q161.797 38.0431 160.312 35.1655 Q158.845 32.2691 155.892 32.2691 M155.892 29.2598 Q160.612 29.2598 163.095 33.0026 Q165.597 36.7265 165.597 43.8359 Q165.597 50.9264 163.095 54.6691 Q160.612 58.3931 155.892 58.3931 Q151.171 58.3931 148.67 54.6691 Q146.187 50.9264 146.187 43.8359 Q146.187 36.7265 148.67 33.0026 Q151.171 29.2598 155.892 29.2598 Z" fill="#000000" fill-rule="evenodd" fill-opacity="1" /><polyline clip-path="url(#clip592)" style="stroke:#009af9; stroke-width:4; stroke-opacity:1; fill:none" points="
  262.478,87.9763 303.066,149.165 343.654,213.199 384.242,277.265 424.83,341.321 465.418,405.375 506.006,469.429 546.594,533.483 587.182,597.537 627.77,661.591 
  668.358,725.645 708.945,789.699 749.533,853.753 790.121,917.807 830.709,981.861 871.297,1045.92 911.885,1109.98 952.473,1174.06 993.061,1238.29 1033.65,1303.39 
  1074.24,1373.39 1114.82,1445.72 1155.41,1429.58 1196,1437.3 1236.59,1429.58 1277.18,1437.3 1317.76,1429.58 1358.35,1437.3 1398.94,1429.58 1439.53,1437.3 
  1480.12,1429.58 1520.7,1437.3 1561.29,1429.58 1601.88,1437.3 1642.47,1429.58 1683.06,1437.3 1723.64,1429.58 1764.23,1437.3 1804.82,1429.58 1845.41,1437.3 
  1885.99,1429.58 1926.58,1437.3 1967.17,1429.58 2007.76,1437.3 2048.35,1429.58 2088.93,1437.3 2129.52,1429.58 2170.11,1437.3 2210.7,1429.58 2251.29,1437.3 
  2291.87,1429.58 
  "/>
<polyline clip-path="url(#clip592)" style="stroke:#e26f46; stroke-width:4; stroke-opacity:1; fill:none" points="
  262.478,87.9763 303.066,175.056 343.654,401.886 384.242,1082.53 424.83,1433.6 465.418,1421.55 506.006,1433.6 546.594,1421.55 587.182,1433.6 627.77,1421.55 
  668.358,1433.6 708.945,1421.55 749.533,1433.6 790.121,1421.55 830.709,1433.6 871.297,1421.55 911.885,1433.6 952.473,1421.55 993.061,1433.6 1033.65,1421.55 
  1074.24,1433.6 1114.82,1421.55 1155.41,1433.6 1196,1421.55 1236.59,1433.6 1277.18,1421.55 1317.76,1433.6 1358.35,1421.55 1398.94,1433.6 1439.53,1421.55 
  1480.12,1433.6 1520.7,1421.55 1561.29,1433.6 1601.88,1421.55 1642.47,1433.6 1683.06,1421.55 1723.64,1433.6 1764.23,1421.55 1804.82,1433.6 1845.41,1421.55 
  1885.99,1433.6 1926.58,1421.55 1967.17,1433.6 2007.76,1421.55 2048.35,1433.6 2088.93,1421.55 2129.52,1433.6 2170.11,1421.55 2210.7,1433.6 2251.29,1421.55 
  2291.87,1433.6 
  "/>
<path clip-path="url(#clip590)" d="
M1488.82 276.658 L2281.05 276.658 L2281.05 95.2176 L1488.82 95.2176  Z
  " fill="#ffffff" fill-rule="evenodd" fill-opacity="1"/>
<polyline clip-path="url(#clip590)" style="stroke:#000000; stroke-width:4; stroke-opacity:1; fill:none" points="
  1488.82,276.658 2281.05,276.658 2281.05,95.2176 1488.82,95.2176 1488.82,276.658 
  "/>
<polyline clip-path="url(#clip590)" style="stroke:#009af9; stroke-width:4; stroke-opacity:1; fill:none" points="
  1512.72,155.698 1656.13,155.698 
  "/>
<path clip-path="url(#clip590)" d="M 0 0 M1684.71 142.26 L1684.71 155.246 L1690.59 155.246 Q1693.85 155.246 1695.63 153.556 Q1697.42 151.867 1697.42 148.742 Q1697.42 145.64 1695.63 143.95 Q1693.85 142.26 1690.59 142.26 L1684.71 142.26 M1680.03 138.418 L1690.59 138.418 Q1696.4 138.418 1699.36 141.056 Q1702.35 143.672 1702.35 148.742 Q1702.35 153.857 1699.36 156.473 Q1696.4 159.089 1690.59 159.089 L1684.71 159.089 L1684.71 172.978 L1680.03 172.978 L1680.03 138.418 Z" fill="#000000" fill-rule="evenodd" fill-opacity="1" /><path clip-path="url(#clip590)" d="M 0 0 M1715.17 150.038 Q1711.75 150.038 1709.75 152.723 Q1707.76 155.385 1707.76 160.038 Q1707.76 164.691 1709.73 167.376 Q1711.72 170.038 1715.17 170.038 Q1718.57 170.038 1720.56 167.353 Q1722.56 164.667 1722.56 160.038 Q1722.56 155.431 1720.56 152.746 Q1718.57 150.038 1715.17 150.038 M1715.17 146.427 Q1720.73 146.427 1723.9 150.038 Q1727.07 153.649 1727.07 160.038 Q1727.07 166.404 1723.9 170.038 Q1720.73 173.649 1715.17 173.649 Q1709.59 173.649 1706.42 170.038 Q1703.27 166.404 1703.27 160.038 Q1703.27 153.649 1706.42 150.038 Q1709.59 146.427 1715.17 146.427 Z" fill="#000000" fill-rule="evenodd" fill-opacity="1" /><path clip-path="url(#clip590)" d="M 0 0 M1729.06 147.052 L1733.32 147.052 L1738.64 167.283 L1743.94 147.052 L1748.97 147.052 L1754.29 167.283 L1759.59 147.052 L1763.85 147.052 L1757.07 172.978 L1752.05 172.978 L1746.47 151.728 L1740.87 172.978 L1735.84 172.978 L1729.06 147.052 Z" fill="#000000" fill-rule="evenodd" fill-opacity="1" /><path clip-path="url(#clip590)" d="M 0 0 M1790.49 158.95 L1790.49 161.033 L1770.91 161.033 Q1771.19 165.431 1773.55 167.746 Q1775.93 170.038 1780.17 170.038 Q1782.62 170.038 1784.92 169.436 Q1787.23 168.834 1789.5 167.63 L1789.5 171.658 Q1787.21 172.63 1784.8 173.14 Q1782.39 173.649 1779.92 173.649 Q1773.71 173.649 1770.08 170.038 Q1766.47 166.427 1766.47 160.269 Q1766.47 153.904 1769.89 150.177 Q1773.34 146.427 1779.18 146.427 Q1784.41 146.427 1787.44 149.806 Q1790.49 153.163 1790.49 158.95 M1786.24 157.7 Q1786.19 154.205 1784.27 152.121 Q1782.37 150.038 1779.22 150.038 Q1775.66 150.038 1773.5 152.052 Q1771.37 154.066 1771.05 157.723 L1786.24 157.7 Z" fill="#000000" fill-rule="evenodd" fill-opacity="1" /><path clip-path="url(#clip590)" d="M 0 0 M1809.99 151.033 Q1809.27 150.617 1808.41 150.431 Q1807.58 150.223 1806.56 150.223 Q1802.95 150.223 1801 152.584 Q1799.08 154.922 1799.08 159.32 L1799.08 172.978 L1794.8 172.978 L1794.8 147.052 L1799.08 147.052 L1799.08 151.08 Q1800.43 148.718 1802.58 147.584 Q1804.73 146.427 1807.81 146.427 Q1808.25 146.427 1808.78 146.496 Q1809.31 146.543 1809.96 146.658 L1809.99 151.033 Z" fill="#000000" fill-rule="evenodd" fill-opacity="1" /><path clip-path="url(#clip590)" d="M 0 0 M1849.71 152.029 Q1851.3 149.158 1853.53 147.793 Q1855.75 146.427 1858.76 146.427 Q1862.81 146.427 1865.01 149.274 Q1867.21 152.098 1867.21 157.329 L1867.21 172.978 L1862.92 172.978 L1862.92 157.468 Q1862.92 153.742 1861.61 151.936 Q1860.29 150.13 1857.58 150.13 Q1854.27 150.13 1852.35 152.33 Q1850.43 154.529 1850.43 158.325 L1850.43 172.978 L1846.14 172.978 L1846.14 157.468 Q1846.14 153.718 1844.82 151.936 Q1843.5 150.13 1840.75 150.13 Q1837.49 150.13 1835.56 152.353 Q1833.64 154.552 1833.64 158.325 L1833.64 172.978 L1829.36 172.978 L1829.36 147.052 L1833.64 147.052 L1833.64 151.08 Q1835.1 148.695 1837.14 147.561 Q1839.18 146.427 1841.98 146.427 Q1844.8 146.427 1846.77 147.862 Q1848.76 149.297 1849.71 152.029 Z" fill="#000000" fill-rule="evenodd" fill-opacity="1" /><path clip-path="url(#clip590)" d="M 0 0 M1893.85 158.95 L1893.85 161.033 L1874.27 161.033 Q1874.55 165.431 1876.91 167.746 Q1879.29 170.038 1883.53 170.038 Q1885.98 170.038 1888.27 169.436 Q1890.59 168.834 1892.86 167.63 L1892.86 171.658 Q1890.56 172.63 1888.16 173.14 Q1885.75 173.649 1883.27 173.649 Q1877.07 173.649 1873.43 170.038 Q1869.82 166.427 1869.82 160.269 Q1869.82 153.904 1873.25 150.177 Q1876.7 146.427 1882.53 146.427 Q1887.76 146.427 1890.8 149.806 Q1893.85 153.163 1893.85 158.95 M1889.59 157.7 Q1889.55 154.205 1887.62 152.121 Q1885.73 150.038 1882.58 150.038 Q1879.01 150.038 1876.86 152.052 Q1874.73 154.066 1874.41 157.723 L1889.59 157.7 Z" fill="#000000" fill-rule="evenodd" fill-opacity="1" /><path clip-path="url(#clip590)" d="M 0 0 M1902.53 139.691 L1902.53 147.052 L1911.3 147.052 L1911.3 150.362 L1902.53 150.362 L1902.53 164.436 Q1902.53 167.607 1903.39 168.51 Q1904.27 169.413 1906.93 169.413 L1911.3 169.413 L1911.3 172.978 L1906.93 172.978 Q1902 172.978 1900.12 171.149 Q1898.25 169.297 1898.25 164.436 L1898.25 150.362 L1895.12 150.362 L1895.12 147.052 L1898.25 147.052 L1898.25 139.691 L1902.53 139.691 Z" fill="#000000" fill-rule="evenodd" fill-opacity="1" /><path clip-path="url(#clip590)" d="M 0 0 M1937.32 157.329 L1937.32 172.978 L1933.06 172.978 L1933.06 157.468 Q1933.06 153.788 1931.63 151.959 Q1930.19 150.13 1927.32 150.13 Q1923.87 150.13 1921.88 152.33 Q1919.89 154.529 1919.89 158.325 L1919.89 172.978 L1915.61 172.978 L1915.61 136.959 L1919.89 136.959 L1919.89 151.08 Q1921.42 148.742 1923.48 147.584 Q1925.56 146.427 1928.27 146.427 Q1932.74 146.427 1935.03 149.205 Q1937.32 151.959 1937.32 157.329 Z" fill="#000000" fill-rule="evenodd" fill-opacity="1" /><path clip-path="url(#clip590)" d="M 0 0 M1951.84 150.038 Q1948.41 150.038 1946.42 152.723 Q1944.43 155.385 1944.43 160.038 Q1944.43 164.691 1946.4 167.376 Q1948.39 170.038 1951.84 170.038 Q1955.24 170.038 1957.23 167.353 Q1959.22 164.667 1959.22 160.038 Q1959.22 155.431 1957.23 152.746 Q1955.24 150.038 1951.84 150.038 M1951.84 146.427 Q1957.39 146.427 1960.56 150.038 Q1963.73 153.649 1963.73 160.038 Q1963.73 166.404 1960.56 170.038 Q1957.39 173.649 1951.84 173.649 Q1946.26 173.649 1943.09 170.038 Q1939.94 166.404 1939.94 160.038 Q1939.94 153.649 1943.09 150.038 Q1946.26 146.427 1951.84 146.427 Z" fill="#000000" fill-rule="evenodd" fill-opacity="1" /><path clip-path="url(#clip590)" d="M 0 0 M1985.26 150.987 L1985.26 136.959 L1989.52 136.959 L1989.52 172.978 L1985.26 172.978 L1985.26 169.089 Q1983.92 171.403 1981.86 172.538 Q1979.82 173.649 1976.95 173.649 Q1972.25 173.649 1969.29 169.899 Q1966.35 166.149 1966.35 160.038 Q1966.35 153.927 1969.29 150.177 Q1972.25 146.427 1976.95 146.427 Q1979.82 146.427 1981.86 147.561 Q1983.92 148.672 1985.26 150.987 M1970.75 160.038 Q1970.75 164.737 1972.67 167.422 Q1974.61 170.084 1977.99 170.084 Q1981.37 170.084 1983.32 167.422 Q1985.26 164.737 1985.26 160.038 Q1985.26 155.339 1983.32 152.677 Q1981.37 149.992 1977.99 149.992 Q1974.61 149.992 1972.67 152.677 Q1970.75 155.339 1970.75 160.038 Z" fill="#000000" fill-rule="evenodd" fill-opacity="1" /><polyline clip-path="url(#clip590)" style="stroke:#e26f46; stroke-width:4; stroke-opacity:1; fill:none" points="
  1512.72,216.178 1656.13,216.178 
  "/>
<path clip-path="url(#clip590)" d="M 0 0 M1696.42 217.254 Q1697.93 217.763 1699.34 219.43 Q1700.77 221.097 1702.21 224.013 L1706.95 233.458 L1701.93 233.458 L1697.51 224.592 Q1695.8 221.12 1694.18 219.985 Q1692.58 218.851 1689.8 218.851 L1684.71 218.851 L1684.71 233.458 L1680.03 233.458 L1680.03 198.898 L1690.59 198.898 Q1696.51 198.898 1699.43 201.374 Q1702.35 203.851 1702.35 208.851 Q1702.35 212.115 1700.82 214.268 Q1699.31 216.421 1696.42 217.254 M1684.71 202.74 L1684.71 215.009 L1690.59 215.009 Q1693.97 215.009 1695.68 213.458 Q1697.42 211.884 1697.42 208.851 Q1697.42 205.819 1695.68 204.291 Q1693.97 202.74 1690.59 202.74 L1684.71 202.74 Z" fill="#000000" fill-rule="evenodd" fill-opacity="1" /><path clip-path="url(#clip590)" d="M 0 0 M1722.16 220.425 Q1717 220.425 1715.01 221.606 Q1713.02 222.786 1713.02 225.634 Q1713.02 227.902 1714.5 229.245 Q1716 230.564 1718.57 230.564 Q1722.12 230.564 1724.25 228.064 Q1726.4 225.541 1726.4 221.374 L1726.4 220.425 L1722.16 220.425 M1730.66 218.666 L1730.66 233.458 L1726.4 233.458 L1726.4 229.522 Q1724.94 231.883 1722.76 233.018 Q1720.59 234.129 1717.44 234.129 Q1713.46 234.129 1711.1 231.907 Q1708.76 229.661 1708.76 225.911 Q1708.76 221.536 1711.68 219.314 Q1714.62 217.092 1720.43 217.092 L1726.4 217.092 L1726.4 216.675 Q1726.4 213.735 1724.45 212.138 Q1722.53 210.518 1719.04 210.518 Q1716.81 210.518 1714.71 211.05 Q1712.6 211.583 1710.66 212.647 L1710.66 208.712 Q1713 207.81 1715.19 207.37 Q1717.39 206.907 1719.48 206.907 Q1725.1 206.907 1727.88 209.823 Q1730.66 212.74 1730.66 218.666 Z" fill="#000000" fill-rule="evenodd" fill-opacity="1" /><path clip-path="url(#clip590)" d="M 0 0 M1745.91 235.865 Q1744.11 240.495 1742.39 241.907 Q1740.68 243.319 1737.81 243.319 L1734.41 243.319 L1734.41 239.754 L1736.91 239.754 Q1738.67 239.754 1739.64 238.92 Q1740.61 238.087 1741.79 234.985 L1742.56 233.041 L1732.07 207.532 L1736.58 207.532 L1744.68 227.809 L1752.79 207.532 L1757.3 207.532 L1745.91 235.865 Z" fill="#000000" fill-rule="evenodd" fill-opacity="1" /><path clip-path="url(#clip590)" d="M 0 0 M1761.77 197.439 L1766.03 197.439 L1766.03 233.458 L1761.77 233.458 L1761.77 197.439 Z" fill="#000000" fill-rule="evenodd" fill-opacity="1" /><path clip-path="url(#clip590)" d="M 0 0 M1792.67 219.43 L1792.67 221.513 L1773.09 221.513 Q1773.37 225.911 1775.73 228.226 Q1778.11 230.518 1782.35 230.518 Q1784.8 230.518 1787.09 229.916 Q1789.41 229.314 1791.68 228.11 L1791.68 232.138 Q1789.38 233.11 1786.98 233.62 Q1784.57 234.129 1782.09 234.129 Q1775.89 234.129 1772.25 230.518 Q1768.64 226.907 1768.64 220.749 Q1768.64 214.384 1772.07 210.657 Q1775.52 206.907 1781.35 206.907 Q1786.58 206.907 1789.62 210.286 Q1792.67 213.643 1792.67 219.43 M1788.41 218.18 Q1788.37 214.685 1786.44 212.601 Q1784.55 210.518 1781.4 210.518 Q1777.83 210.518 1775.68 212.532 Q1773.55 214.546 1773.23 218.203 L1788.41 218.18 Z" fill="#000000" fill-rule="evenodd" fill-opacity="1" /><path clip-path="url(#clip590)" d="M 0 0 M1797.14 207.532 L1801.4 207.532 L1801.4 233.458 L1797.14 233.458 L1797.14 207.532 M1797.14 197.439 L1801.4 197.439 L1801.4 202.833 L1797.14 202.833 L1797.14 197.439 Z" fill="#000000" fill-rule="evenodd" fill-opacity="1" /><path clip-path="url(#clip590)" d="M 0 0 M1822.93 220.194 Q1822.93 215.564 1821 213.018 Q1819.11 210.472 1815.66 210.472 Q1812.23 210.472 1810.31 213.018 Q1808.41 215.564 1808.41 220.194 Q1808.41 224.8 1810.31 227.346 Q1812.23 229.893 1815.66 229.893 Q1819.11 229.893 1821 227.346 Q1822.93 224.8 1822.93 220.194 M1827.18 230.24 Q1827.18 236.86 1824.24 240.078 Q1821.3 243.319 1815.24 243.319 Q1812.99 243.319 1811 242.971 Q1809.01 242.647 1807.14 241.953 L1807.14 237.809 Q1809.01 238.828 1810.84 239.314 Q1812.67 239.8 1814.57 239.8 Q1818.76 239.8 1820.84 237.601 Q1822.93 235.425 1822.93 231.004 L1822.93 228.897 Q1821.61 231.189 1819.55 232.323 Q1817.49 233.458 1814.62 233.458 Q1809.85 233.458 1806.93 229.823 Q1804.01 226.189 1804.01 220.194 Q1804.01 214.175 1806.93 210.541 Q1809.85 206.907 1814.62 206.907 Q1817.49 206.907 1819.55 208.041 Q1821.61 209.175 1822.93 211.467 L1822.93 207.532 L1827.18 207.532 L1827.18 230.24 Z" fill="#000000" fill-rule="evenodd" fill-opacity="1" /><path clip-path="url(#clip590)" d="M 0 0 M1853.2 217.809 L1853.2 233.458 L1848.94 233.458 L1848.94 217.948 Q1848.94 214.268 1847.51 212.439 Q1846.07 210.61 1843.2 210.61 Q1839.75 210.61 1837.76 212.81 Q1835.77 215.009 1835.77 218.805 L1835.77 233.458 L1831.49 233.458 L1831.49 197.439 L1835.77 197.439 L1835.77 211.56 Q1837.3 209.222 1839.36 208.064 Q1841.44 206.907 1844.15 206.907 Q1848.62 206.907 1850.91 209.685 Q1853.2 212.439 1853.2 217.809 Z" fill="#000000" fill-rule="evenodd" fill-opacity="1" /><path clip-path="url(#clip590)" d="M 0 0 M1875.29 220.518 Q1875.29 225.217 1877.21 227.902 Q1879.15 230.564 1882.53 230.564 Q1885.91 230.564 1887.86 227.902 Q1889.8 225.217 1889.8 220.518 Q1889.8 215.819 1887.86 213.157 Q1885.91 210.472 1882.53 210.472 Q1879.15 210.472 1877.21 213.157 Q1875.29 215.819 1875.29 220.518 M1889.8 229.569 Q1888.46 231.883 1886.4 233.018 Q1884.36 234.129 1881.49 234.129 Q1876.79 234.129 1873.83 230.379 Q1870.89 226.629 1870.89 220.518 Q1870.89 214.407 1873.83 210.657 Q1876.79 206.907 1881.49 206.907 Q1884.36 206.907 1886.4 208.041 Q1888.46 209.152 1889.8 211.467 L1889.8 207.532 L1894.06 207.532 L1894.06 243.319 L1889.8 243.319 L1889.8 229.569 Z" fill="#000000" fill-rule="evenodd" fill-opacity="1" /><path clip-path="url(#clip590)" d="M 0 0 M1898.09 223.226 L1898.09 207.532 L1902.35 207.532 L1902.35 223.064 Q1902.35 226.745 1903.78 228.596 Q1905.22 230.425 1908.09 230.425 Q1911.54 230.425 1913.53 228.226 Q1915.54 226.027 1915.54 222.231 L1915.54 207.532 L1919.8 207.532 L1919.8 233.458 L1915.54 233.458 L1915.54 229.476 Q1913.99 231.837 1911.93 232.995 Q1909.89 234.129 1907.18 234.129 Q1902.72 234.129 1900.4 231.351 Q1898.09 228.573 1898.09 223.226 M1908.8 206.907 L1908.8 206.907 Z" fill="#000000" fill-rule="evenodd" fill-opacity="1" /><path clip-path="url(#clip590)" d="M 0 0 M1934.31 210.518 Q1930.89 210.518 1928.9 213.203 Q1926.91 215.865 1926.91 220.518 Q1926.91 225.171 1928.87 227.856 Q1930.86 230.518 1934.31 230.518 Q1937.72 230.518 1939.71 227.833 Q1941.7 225.147 1941.7 220.518 Q1941.7 215.911 1939.71 213.226 Q1937.72 210.518 1934.31 210.518 M1934.31 206.907 Q1939.87 206.907 1943.04 210.518 Q1946.21 214.129 1946.21 220.518 Q1946.21 226.884 1943.04 230.518 Q1939.87 234.129 1934.31 234.129 Q1928.73 234.129 1925.56 230.518 Q1922.42 226.884 1922.42 220.518 Q1922.42 214.129 1925.56 210.518 Q1928.73 206.907 1934.31 206.907 Z" fill="#000000" fill-rule="evenodd" fill-opacity="1" /><path clip-path="url(#clip590)" d="M 0 0 M1954.89 200.171 L1954.89 207.532 L1963.67 207.532 L1963.67 210.842 L1954.89 210.842 L1954.89 224.916 Q1954.89 228.087 1955.75 228.99 Q1956.63 229.893 1959.29 229.893 L1963.67 229.893 L1963.67 233.458 L1959.29 233.458 Q1954.36 233.458 1952.48 231.629 Q1950.61 229.777 1950.61 224.916 L1950.61 210.842 L1947.48 210.842 L1947.48 207.532 L1950.61 207.532 L1950.61 200.171 L1954.89 200.171 Z" fill="#000000" fill-rule="evenodd" fill-opacity="1" /><path clip-path="url(#clip590)" d="M 0 0 M1968.13 207.532 L1972.39 207.532 L1972.39 233.458 L1968.13 233.458 L1968.13 207.532 M1968.13 197.439 L1972.39 197.439 L1972.39 202.833 L1968.13 202.833 L1968.13 197.439 Z" fill="#000000" fill-rule="evenodd" fill-opacity="1" /><path clip-path="url(#clip590)" d="M 0 0 M1999.04 219.43 L1999.04 221.513 L1979.45 221.513 Q1979.73 225.911 1982.09 228.226 Q1984.48 230.518 1988.71 230.518 Q1991.17 230.518 1993.46 229.916 Q1995.77 229.314 1998.04 228.11 L1998.04 232.138 Q1995.75 233.11 1993.34 233.62 Q1990.93 234.129 1988.46 234.129 Q1982.25 234.129 1978.62 230.518 Q1975.01 226.907 1975.01 220.749 Q1975.01 214.384 1978.43 210.657 Q1981.88 206.907 1987.72 206.907 Q1992.95 206.907 1995.98 210.286 Q1999.04 213.643 1999.04 219.43 M1994.78 218.18 Q1994.73 214.685 1992.81 212.601 Q1990.91 210.518 1987.76 210.518 Q1984.2 210.518 1982.04 212.532 Q1979.92 214.546 1979.59 218.203 L1994.78 218.18 Z" fill="#000000" fill-rule="evenodd" fill-opacity="1" /><path clip-path="url(#clip590)" d="M 0 0 M2025.05 217.809 L2025.05 233.458 L2020.79 233.458 L2020.79 217.948 Q2020.79 214.268 2019.36 212.439 Q2017.92 210.61 2015.05 210.61 Q2011.6 210.61 2009.61 212.81 Q2007.62 215.009 2007.62 218.805 L2007.62 233.458 L2003.34 233.458 L2003.34 207.532 L2007.62 207.532 L2007.62 211.56 Q2009.15 209.222 2011.21 208.064 Q2013.29 206.907 2016 206.907 Q2020.47 206.907 2022.76 209.685 Q2025.05 212.439 2025.05 217.809 Z" fill="#000000" fill-rule="evenodd" fill-opacity="1" /><path clip-path="url(#clip590)" d="M 0 0 M2033.73 200.171 L2033.73 207.532 L2042.51 207.532 L2042.51 210.842 L2033.73 210.842 L2033.73 224.916 Q2033.73 228.087 2034.59 228.99 Q2035.47 229.893 2038.13 229.893 L2042.51 229.893 L2042.51 233.458 L2038.13 233.458 Q2033.2 233.458 2031.33 231.629 Q2029.45 229.777 2029.45 224.916 L2029.45 210.842 L2026.33 210.842 L2026.33 207.532 L2029.45 207.532 L2029.45 200.171 L2033.73 200.171 Z" fill="#000000" fill-rule="evenodd" fill-opacity="1" /><path clip-path="url(#clip590)" d="M 0 0 M2062.04 207.532 L2066.3 207.532 L2066.3 233.458 L2062.04 233.458 L2062.04 207.532 M2062.04 197.439 L2066.3 197.439 L2066.3 202.833 L2062.04 202.833 L2062.04 197.439 Z" fill="#000000" fill-rule="evenodd" fill-opacity="1" /><path clip-path="url(#clip590)" d="M 0 0 M2074.98 200.171 L2074.98 207.532 L2083.76 207.532 L2083.76 210.842 L2074.98 210.842 L2074.98 224.916 Q2074.98 228.087 2075.84 228.99 Q2076.72 229.893 2079.38 229.893 L2083.76 229.893 L2083.76 233.458 L2079.38 233.458 Q2074.45 233.458 2072.58 231.629 Q2070.7 229.777 2070.7 224.916 L2070.7 210.842 L2067.58 210.842 L2067.58 207.532 L2070.7 207.532 L2070.7 200.171 L2074.98 200.171 Z" fill="#000000" fill-rule="evenodd" fill-opacity="1" /><path clip-path="url(#clip590)" d="M 0 0 M2110.4 219.43 L2110.4 221.513 L2090.82 221.513 Q2091.1 225.911 2093.46 228.226 Q2095.84 230.518 2100.08 230.518 Q2102.53 230.518 2104.82 229.916 Q2107.14 229.314 2109.41 228.11 L2109.41 232.138 Q2107.11 233.11 2104.71 233.62 Q2102.3 234.129 2099.82 234.129 Q2093.62 234.129 2089.98 230.518 Q2086.37 226.907 2086.37 220.749 Q2086.37 214.384 2089.8 210.657 Q2093.25 206.907 2099.08 206.907 Q2104.31 206.907 2107.34 210.286 Q2110.4 213.643 2110.4 219.43 M2106.14 218.18 Q2106.09 214.685 2104.17 212.601 Q2102.28 210.518 2099.13 210.518 Q2095.56 210.518 2093.41 212.532 Q2091.28 214.546 2090.96 218.203 L2106.14 218.18 Z" fill="#000000" fill-rule="evenodd" fill-opacity="1" /><path clip-path="url(#clip590)" d="M 0 0 M2129.89 211.513 Q2129.17 211.097 2128.32 210.911 Q2127.48 210.703 2126.47 210.703 Q2122.85 210.703 2120.91 213.064 Q2118.99 215.402 2118.99 219.8 L2118.99 233.458 L2114.71 233.458 L2114.71 207.532 L2118.99 207.532 L2118.99 211.56 Q2120.33 209.198 2122.48 208.064 Q2124.64 206.907 2127.72 206.907 Q2128.16 206.907 2128.69 206.976 Q2129.22 207.023 2129.87 207.138 L2129.89 211.513 Z" fill="#000000" fill-rule="evenodd" fill-opacity="1" /><path clip-path="url(#clip590)" d="M 0 0 M2146.14 220.425 Q2140.98 220.425 2138.99 221.606 Q2137 222.786 2137 225.634 Q2137 227.902 2138.48 229.245 Q2139.98 230.564 2142.55 230.564 Q2146.09 230.564 2148.22 228.064 Q2150.38 225.541 2150.38 221.374 L2150.38 220.425 L2146.14 220.425 M2154.64 218.666 L2154.64 233.458 L2150.38 233.458 L2150.38 229.522 Q2148.92 231.883 2146.74 233.018 Q2144.57 234.129 2141.42 234.129 Q2137.44 234.129 2135.08 231.907 Q2132.74 229.661 2132.74 225.911 Q2132.74 221.536 2135.65 219.314 Q2138.59 217.092 2144.4 217.092 L2150.38 217.092 L2150.38 216.675 Q2150.38 213.735 2148.43 212.138 Q2146.51 210.518 2143.02 210.518 Q2140.79 210.518 2138.69 211.05 Q2136.58 211.583 2134.64 212.647 L2134.64 208.712 Q2136.97 207.81 2139.17 207.37 Q2141.37 206.907 2143.46 206.907 Q2149.08 206.907 2151.86 209.823 Q2154.64 212.74 2154.64 218.666 Z" fill="#000000" fill-rule="evenodd" fill-opacity="1" /><path clip-path="url(#clip590)" d="M 0 0 M2163.32 200.171 L2163.32 207.532 L2172.09 207.532 L2172.09 210.842 L2163.32 210.842 L2163.32 224.916 Q2163.32 228.087 2164.17 228.99 Q2165.05 229.893 2167.71 229.893 L2172.09 229.893 L2172.09 233.458 L2167.71 233.458 Q2162.78 233.458 2160.91 231.629 Q2159.03 229.777 2159.03 224.916 L2159.03 210.842 L2155.91 210.842 L2155.91 207.532 L2159.03 207.532 L2159.03 200.171 L2163.32 200.171 Z" fill="#000000" fill-rule="evenodd" fill-opacity="1" /><path clip-path="url(#clip590)" d="M 0 0 M2176.56 207.532 L2180.82 207.532 L2180.82 233.458 L2176.56 233.458 L2176.56 207.532 M2176.56 197.439 L2180.82 197.439 L2180.82 202.833 L2176.56 202.833 L2176.56 197.439 Z" fill="#000000" fill-rule="evenodd" fill-opacity="1" /><path clip-path="url(#clip590)" d="M 0 0 M2195.33 210.518 Q2191.9 210.518 2189.91 213.203 Q2187.92 215.865 2187.92 220.518 Q2187.92 225.171 2189.89 227.856 Q2191.88 230.518 2195.33 230.518 Q2198.73 230.518 2200.72 227.833 Q2202.71 225.147 2202.71 220.518 Q2202.71 215.911 2200.72 213.226 Q2198.73 210.518 2195.33 210.518 M2195.33 206.907 Q2200.89 206.907 2204.06 210.518 Q2207.23 214.129 2207.23 220.518 Q2207.23 226.884 2204.06 230.518 Q2200.89 234.129 2195.33 234.129 Q2189.75 234.129 2186.58 230.518 Q2183.43 226.884 2183.43 220.518 Q2183.43 214.129 2186.58 210.518 Q2189.75 206.907 2195.33 206.907 Z" fill="#000000" fill-rule="evenodd" fill-opacity="1" /><path clip-path="url(#clip590)" d="M 0 0 M2233.25 217.809 L2233.25 233.458 L2228.99 233.458 L2228.99 217.948 Q2228.99 214.268 2227.55 212.439 Q2226.12 210.61 2223.25 210.61 Q2219.8 210.61 2217.81 212.81 Q2215.82 215.009 2215.82 218.805 L2215.82 233.458 L2211.53 233.458 L2211.53 207.532 L2215.82 207.532 L2215.82 211.56 Q2217.34 209.222 2219.4 208.064 Q2221.49 206.907 2224.2 206.907 Q2228.66 206.907 2230.96 209.685 Q2233.25 212.439 2233.25 217.809 Z" fill="#000000" fill-rule="evenodd" fill-opacity="1" /></svg>
